<?xml version="1.0" encoding="UTF-8" standalone="no"?>
<svg xmlns:rdf="http://www.w3.org/1999/02/22-rdf-syntax-ns#" xmlns="http://www.w3.org/2000/svg" height="36" width="126" version="1.1" xmlns:cc="http://creativecommons.org/ns#" xmlns:dc="http://purl.org/dc/elements/1.1/" viewBox="0 0 126.00001 36">
 <g fill-opacity=".52157" fill="#c7c7c7" transform="translate(-31.842 -1016.7)">
  <path d="m47.53 1044.2h-10.818v7.4937h-3.8695v-9.483q0-1.7712 0.1635-3.1065 0.19075-1.3625 0.51775-2.071 1.199-2.5887 4.3328-3.2427 0.3815-0.082 0.7085-0.1363 0.327-0.054 0.68125-0.082 0.3815-0.027 0.84475-0.027 0.4905-0.027 1.1718-0.027h6.2675v3.2427h-5.777q-1.1718 0-2.1528 0.1363-0.95375 0.109-1.417 0.327-1.4715 0.7085-1.4715 2.7522v0.981h10.818v3.2428z"/>
  <path d="m54.062 1033.5v10.192q0.0545 1.199 0.08175 1.8802 0.0545 0.654 0.13625 1.0628 0.109 0.3815 0.24525 0.5722 0.1635 0.1908 0.436 0.436 0.2725 0.2453 0.57225 0.4088 0.29975 0.1362 0.73575 0.218 0.46325 0.082 1.09 0.1362 0.654 0.027 1.5805 0.027h3.706v3.2427h-4.1148q-0.95375 0-1.5805 0-0.62675-0.027-1.09-0.054-0.436-0.027-0.763-0.082-0.29975-0.082-0.654-0.1635-1.3898-0.3815-2.398-1.2808-0.981-0.8992-1.417-2.2072-0.218-0.6268-0.327-1.6895-0.109-1.09-0.109-2.507v-10.192h3.8695z"/>
  <path d="m70.921 1044.2h5.1775l-2.5888-6.3492-2.5888 6.3492zm0.35425-10.709h4.4418l7.521 18.176h-4.5235l-1.744-4.2237h-6.9215l-1.744 4.2237h-4.5508l7.521-18.176z"/>
  <path d="m88.87 1051.7h-3.6788v-18.176h4.9322l7.2485 13.543v-13.543h3.6788v18.176h-4.7415l-7.4392-13.325v13.325z"/>
  <path d="m120.36 1040.9v10.791h-8.1205q-1.0628 0-1.8802-0.054-0.8175-0.082-1.4715-0.2452-0.654-0.1635-1.199-0.436t-1.0355-0.6813q-1.3898-1.09-2.1255-3.0247-0.73575-1.9348-0.73575-4.578 0-2.616 0.7085-4.5508 0.73575-1.9347 2.1255-3.052 1.962-1.5532 5.777-1.5532h7.957v3.2427h-7.4938q-2.5888 0-3.706 1.308-1.1172 1.2808-1.1172 4.251 0 1.7168 0.327 3.052 0.35425 1.3353 0.981 1.9893 1.0628 1.09 3.6515 1.09h3.488v-4.3055h-5.0685v-3.2428h8.938z"/>
  <path d="m137.24 1036.7h-5.0412q-0.981 0-1.6895 0.082-0.68125 0.054-1.199 0.218-0.4905 0.1362-0.84475 0.4087-0.35425 0.2453-0.654 0.6268-0.218 0.2725-0.35425 0.5177-0.109 0.2453-0.19075 0.5723-0.0817 0.2997-0.13625 0.7357-0.0545 0.436-0.109 1.1173h10.219v3.2427h-10.219q0.109 1.1718 0.436 1.962 0.327 0.7903 0.95375 1.2808t1.5805 0.7085q0.981 0.218 2.3708 0.218h4.8778v3.2427h-5.0412q-1.4442 0-2.5615-0.109-1.09-0.109-1.9348-0.327-0.84475-0.2452-1.4988-0.6267-0.62675-0.4088-1.1718-0.981-1.1718-1.2263-1.7985-3.052-0.5995-1.8258-0.5995-4.1148 0-4.8777 3.0792-7.4937 0.4905-0.4088 0.981-0.6813 0.4905-0.2997 1.0628-0.4632 0.5995-0.1635 1.308-0.2453 0.7085-0.082 1.635-0.082h6.54v3.2427z"/>
  <path d="m149.57 1041.5q1.4988 0 2.1255-0.5722 0.654-0.5995 0.654-1.9348 0-1.6895-1.3352-2.1527-0.4905-0.1363-1.4442-0.1363h-5.4228v4.796h5.4228zm-5.4228 10.137h-3.8695v-18.176h8.8835q2.071 0 3.3518 0.2452 1.2808 0.2453 2.0982 0.8175 0.95375 0.654 1.4715 1.7168 0.545 1.0355 0.545 2.289 0 4.1147-3.4608 5.3137 1.6078 0.436 2.398 1.6895 0.79025 1.2263 0.89925 3.3518 0.0545 0.6267 0.0817 1.0627 0.0545 0.4088 0.0817 0.7085 0.0545 0.2725 0.109 0.5178 0.0817 0.218 0.1635 0.4632h-4.3328q-0.109-0.2997-0.13625-0.4905-0.0272-0.1907-0.0817-0.4905-0.0545-0.3815-0.109-0.8447-0.0273-0.4905-0.0545-0.763-0.13625-1.2263-0.436-2.0438-0.29975-0.8447-0.872-1.3352-0.57225-0.5178-1.4715-0.7085-0.872-0.218-2.1528-0.218h-3.1065v6.8942z"/>
  <path d="m66.703 1026q1.8 0 1.8-1.47 0-0.72-0.405-1.035t-1.305-0.315h-3.075v2.82h2.985zm0.075-4.32q0.48 0 0.72-0.045 0.255-0.06 0.465-0.225 0.495-0.405 0.495-1.11 0-0.3-0.12-0.57-0.105-0.285-0.3-0.45-0.21-0.165-0.465-0.225t-0.78-0.06h-3.075v2.685h3.06zm-4.89-4.185h5.175q0.9 0 1.455 0.135 0.57 0.135 0.975 0.45 0.435 0.345 0.675 0.87 0.255 0.51 0.255 1.14 0 0.81-0.39 1.425-0.39 0.6-1.125 0.915 1.59 0.6 1.59 2.31 0 0.81-0.345 1.425-0.33 0.615-0.96 0.945-0.72 0.39-2.415 0.39h-4.89v-10.005z"/>
  <path d="m72.082 1027.5v-10.005h1.695v10.005h-1.695z"/>
  <path d="m80.558 1020.2h1.695v7.305h-3.525q-0.54 0-0.915-0.03-0.375-0.045-0.66-0.135-0.27-0.09-0.48-0.24-0.21-0.165-0.405-0.405-0.3-0.375-0.435-0.855-0.135-0.495-0.135-1.245v-4.395h1.695v4.455q0 0.855 0.315 1.185t1.11 0.33h1.74v-5.97z"/>
  <path d="m89.924 1024.5h-4.32q0.03 0.48 0.135 0.795 0.12 0.3 0.39 0.54 0.255 0.21 0.585 0.3 0.33 0.075 0.945 0.075h2.265v1.335h-2.58q-0.51 0-0.9-0.045t-0.705-0.15q-0.315-0.12-0.57-0.285-0.255-0.18-0.495-0.435-0.39-0.435-0.645-1.125-0.24-0.69-0.24-1.41 0-0.945 0.3-1.755 0.315-0.825 0.84-1.305 0.465-0.42 1.065-0.6 0.6-0.195 1.5-0.195h2.43v1.335h-2.235q-1.035 0-1.5 0.345-0.45 0.345-0.57 1.245h4.305v1.335z"/>
  <path d="m102.93 1027.5h-3.27q-0.66 0-1.185-0.06t-0.945-0.18q-0.42-0.135-0.765-0.33-0.33-0.21-0.615-0.495-0.63-0.63-0.975-1.635-0.33-1.005-0.33-2.25 0-1.545 0.525-2.73 0.525-1.2 1.455-1.74 0.48-0.3 1.2-0.435 0.72-0.15 1.62-0.15h3.285v1.5h-3.12q-0.9 0-1.44 0.195-0.525 0.18-0.87 0.6-0.3 0.405-0.48 1.125-0.18 0.705-0.18 1.575 0 1.005 0.24 1.77 0.24 0.75 0.675 1.14 0.345 0.33 0.84 0.465t1.32 0.135h3.015v1.5z"/>
  <path d="m107.05 1024.4q-0.345 0-0.51 0.015-0.15 0.015-0.285 0.075-0.48 0.195-0.48 0.825 0 0.48 0.285 0.675 0.3 0.195 0.99 0.195h2.385v-1.785h-2.385zm2.385-1.335q0-0.48-0.045-0.69-0.03-0.21-0.165-0.405-0.165-0.24-0.465-0.33-0.285-0.09-0.915-0.09h-3.42v-1.335h3.585q0.57 0 0.975 0.045 0.405 0.03 0.69 0.12 0.3 0.075 0.51 0.225 0.21 0.135 0.39 0.345 0.315 0.375 0.435 0.84t0.12 1.335v4.395h-3.93q-0.555 0-0.93-0.015t-0.63-0.06q-0.255-0.06-0.45-0.135-0.18-0.09-0.36-0.225-0.795-0.615-0.795-1.755 0-0.705 0.3-1.245 0.315-0.54 0.84-0.78 0.495-0.24 1.725-0.24h2.535z"/>
  <path d="m113.64 1017.5h1.695v2.7h2.025v1.335h-2.025v3.3q0 0.435 0.045 0.69t0.165 0.405q0.135 0.15 0.36 0.195 0.24 0.045 0.63 0.045h0.825v1.335h-1.44q-0.69 0-1.065-0.105-0.36-0.105-0.66-0.375-0.3-0.3-0.435-0.735-0.12-0.435-0.12-1.23v-3.525h-1.335v-1.335h1.335v-2.7z"/>
  <path d="m118.51 1021.6v-4.02h1.125v4.02h-1.125z"/>
  <path d="m127.54 1021.6h-3.405q-0.555 0-0.765 0.03t-0.345 0.12q-0.27 0.21-0.27 0.69 0 0.255 0.06 0.42 0.06 0.15 0.21 0.24t0.42 0.12 0.69 0.03h1.08q0.405 0 0.705 0.015 0.315 0.015 0.54 0.06t0.39 0.12 0.315 0.18q0.33 0.24 0.51 0.69 0.18 0.435 0.18 0.99 0 0.72-0.3 1.29-0.285 0.57-0.78 0.78-0.24 0.12-0.6 0.165-0.36 0.03-1.095 0.03h-3.99v-1.335h3.54q0.465 0 0.72-0.015t0.39-0.06q0.405-0.105 0.405-0.705 0-0.615-0.42-0.75-0.105-0.03-0.315-0.045-0.195-0.015-0.63-0.015h-0.885q-0.48 0-0.81-0.015-0.33-0.03-0.57-0.075t-0.42-0.12q-0.165-0.09-0.33-0.225-0.345-0.3-0.555-0.78-0.21-0.495-0.21-1.035 0-0.585 0.24-1.08 0.255-0.495 0.69-0.75 0.285-0.165 0.66-0.225 0.375-0.075 1.005-0.075h3.945v1.335z"/>
 </g>
</svg>
