<?xml version="1.0" encoding="UTF-8" standalone="no"?>
<svg xmlns:rdf="http://www.w3.org/1999/02/22-rdf-syntax-ns#" xmlns="http://www.w3.org/2000/svg" xml:space="preserve" height="37" viewBox="0 0 45.999836 36.999996" width="46" version="1.1" y="0px" x="0px" xmlns:cc="http://creativecommons.org/ns#" xmlns:dc="http://purl.org/dc/elements/1.1/" enable-background="new 0 0 968 805.57"><g fill-rule="evenodd" clip-rule="evenodd" transform="matrix(.054277 0 0 .054277 -3.3223 -1.1694)"><path fill="#1e79b4" d="m885.55 622.86v-148.24h23.163v148.24h-23.163zm-155.33 69.744v-297.52c14.408-4.653 29.739-7.173 45.646-7.173 32.159 0 61.964 10.284 86.521 27.784v256.29c-24.557 17.5-54.361 27.784-86.521 27.784-15.907 0-31.238-2.519-45.646-7.172zm6.73-322.57c-32.371-111-132.63-191.91-251.31-191.91-0.228 0-0.453 0.008-0.681 0.009v-61.518c0.228-0.001 0.453-0.009 0.681-0.009 150.97 0 277.68 106.57 312.65 250.41-7.343-0.971-14.827-1.476-22.427-1.476-13.38 0-26.404 1.556-38.915 4.494zm-503.98 0c-12.51-2.938-25.536-4.494-38.914-4.494-7.6 0-15.085 0.505-22.428 1.476 34.972-143.84 161.68-250.41 312.65-250.41 0.229 0 0.454 0.008 0.683 0.009v61.518c-0.229 0-0.454-0.009-0.683-0.009-118.68 0-218.93 80.906-251.31 191.91zm6.731 25.055v297.52c-14.409 4.653-29.739 7.173-45.645 7.173-32.16 0-61.966-10.284-86.522-27.784v-256.29c24.556-17.5 54.362-27.784 86.522-27.784 15.906 0 31.236 2.52 45.645 7.173zm-178.49 79.532h23.163v148.24h-23.163v-148.24z"/><path fill="#44b5ff" d="m608.32 116.56c21.02-22.5 48.06-42.019 79.26-57.599 51.42-25.679 91.65-33.961 91.65-33.961s19.748 68.552 25.997 133.74c5.067 52.851 10.622 141.54 6.024 170.61-33.64-97.76-108.3-175.85-202.93-212.79zm-450.23 208.22c-3.477-32.898 1.79-115.72 6.614-166.04 6.25-65.188 26-133.74 26-133.74s40.23 8.282 91.65 33.956c30.911 15.434 57.731 34.734 78.67 56.968-93.912 36.117-168.36 112.68-202.93 208.86z"/><path fill="#44b5ff" d="m698.97 557c-6.167 4.333-11.167 1.667-13 0s-8.167-12-11-12c-3.95 0-6.622 9.355-13.641 22.61-7.18 13.56-16.61 27.39-29.36 27.39-12.71 0-21.97-14.5-28.05-29.58-6.59-16.36-10.81-33.42-13.95-33.42-4.07 0-8.425 28.052-15.282 54.877-6.29 24.57-13.74 48.12-30.72 48.12-21.968 0-32.267-73.902-42.085-137.19-13.039-87.417-14.998-88.813-16.915-88.813s-3.542 1.063-16.915 88.813c-9.82 63.29-20.12 137.19-42.09 137.19-16.98 0-24.43-23.55-30.72-48.12-6.85-26.83-11.21-54.88-15.28-54.88-3.136 0-7.356 17.057-13.949 33.421-6.08 15.08-15.34 29.58-28.05 29.58-12.75 0-22.18-13.83-29.36-27.39-7.02-13.25-9.69-22.61-13.64-22.61-2.833 0-9.167 10.333-11 12s-6.833 4.333-13 0-4.667-9.667-4-13 9.5-23 31-23c8.292 0 16.555 9.142 22.723 19.445 7.966 13.308 13.106 28.555 17.277 28.555 7.4 0 15.233-66 43-66 15.707 0 23.665 23.791 30.063 48.09 6.955 26.411 10.14 49.91 13.937 49.91 2.135 0 10.512-53.453 20.857-108.82 11.46-61.35 13.77-117.18 39.14-117.18 25.367 0 27.682 55.827 39.143 117.18 10.344 55.372 18.722 108.82 20.857 108.82 3.797 0 6.982-23.499 13.938-49.91 6.397-24.299 14.356-48.09 30.063-48.09 27.767 0 35.6 66 43 66 4.171 0 9.311-15.247 17.276-28.555 6.169-10.304 14.432-19.445 22.724-19.445 21.5 0 30.333 19.667 31 23s2.166 8.667-4.001 13z"/></g></svg>
