<?xml version="1.0" encoding="UTF-8" standalone="no"?>
<svg xmlns:rdf="http://www.w3.org/1999/02/22-rdf-syntax-ns#" xmlns="http://www.w3.org/2000/svg" height="36" width="112" version="1.1" xmlns:cc="http://creativecommons.org/ns#" xmlns:dc="http://purl.org/dc/elements/1.1/" viewBox="0 0 112.00001 36">
 <g fill-opacity=".52157" fill="#c7c7c7" transform="translate(-38.87 -1016.8)">
  <path d="m54.64 1051.7h-6.322q-1.1718 0-2.071-0.082-0.89925-0.109-1.6078-0.2998-0.7085-0.218-1.2808-0.545-0.57225-0.3542-1.09-0.872-1.1718-1.1445-1.7985-2.9702-0.5995-1.8258-0.5995-4.2783 0-3.0792 1.0355-5.232 1.0355-2.18 2.9702-3.0792 0.79025-0.3815 2.0165-0.5995 1.2535-0.218 2.5888-0.218h6.1585v3.2427h-5.6952q-2.6978 0-3.8695 1.4715-0.46325 0.545-0.7085 1.6078-0.218 1.0355-0.218 2.4525 0 2.0165 0.40875 3.379 0.436 1.3625 1.2535 1.962 1.0628 0.8175 3.27 0.8175h5.559v3.2427z"/>
  <path d="m72.039 1051.7h-3.8695v-7.4937h-7.0032v7.4937h-3.8695v-18.176h3.8695v7.4392h7.0032v-7.4392h3.8695v18.176z"/>
  <path d="m83.722 1036.4q-1.308 0-2.3162 0.4905-0.981 0.4632-1.526 1.3352-0.84475 1.3353-0.84475 4.2783 0 3.2155 1.1172 4.7142 1.1445 1.4715 3.6242 1.4715 2.4525 0 3.5698-1.4987 1.1172-1.4988 1.1172-4.7143 0-3.161-1.1445-4.6052-1.1172-1.4715-3.597-1.4715zm0.109-3.0793q2.3708 0 4.2238 0.7358 1.8802 0.7357 2.8885 2.071 0.84475 1.09 1.308 2.834 0.46325 1.7167 0.46325 3.7605 0 4.4962-2.2072 6.758-2.18 2.2617-6.4855 2.2617-2.6432 0-4.6325-0.8175-1.962-0.8175-3.0248-2.3707-1.5805-2.2345-1.5805-5.9405 0-2.616 0.68125-4.5235 0.7085-1.9348 2.071-2.9975 1.0628-0.872 2.6705-1.308 1.635-0.4633 3.6242-0.4633z"/>
  <path d="m104.75 1041.5q1.4988 0 2.1255-0.5722 0.654-0.5995 0.654-1.9348 0-1.6895-1.3352-2.1527-0.4905-0.1363-1.4442-0.1363h-5.4228v4.796h5.4228zm-5.4228 10.137h-3.8695v-18.176h8.8835q2.071 0 3.3518 0.2452 1.2808 0.2453 2.0982 0.8175 0.95375 0.654 1.4715 1.7168 0.545 1.0355 0.545 2.289 0 4.1147-3.4608 5.3137 1.6078 0.436 2.398 1.6895 0.79025 1.2263 0.89925 3.3518 0.0545 0.6267 0.0817 1.0627 0.0545 0.4088 0.0817 0.7085 0.0545 0.2725 0.109 0.5178 0.0817 0.218 0.1635 0.4632h-4.3328q-0.109-0.2997-0.13625-0.4905-0.0272-0.1907-0.0817-0.4905-0.0545-0.3815-0.109-0.8447-0.0272-0.4905-0.0545-0.763-0.13625-1.2263-0.436-2.0438-0.29975-0.8447-0.872-1.3352-0.57225-0.5178-1.4715-0.7085-0.872-0.218-2.1528-0.218h-3.1065v6.8942z"/>
  <path d="m118.46 1044.4q0 1.3352 0.218 2.071 0.24525 0.7357 0.79025 1.2535 0.545 0.4632 1.3625 0.763 0.84475 0.2725 1.7712 0.2725 1.3352 0 2.289-0.4633 0.981-0.4632 1.3625-1.2807 0.1635-0.3815 0.24525-1.0083 0.0817-0.6267 0.0817-1.6077v-10.9h3.8695v10.709q0 2.2073-0.46325 3.597-0.46325 1.3625-1.4988 2.2345-1.09 0.8993-2.5615 1.3353-1.4442 0.436-3.4062 0.436-4.3055 0-6.2675-1.962-0.46325-0.4905-0.79025-0.981-0.327-0.5178-0.51775-1.1445-0.19075-0.6268-0.2725-1.417-0.0817-0.7903-0.0817-1.8258v-10.982h3.8695v10.9z"/>
  <path d="m133.88 1048.4h8.284q1.09 0 1.7168-0.109 0.62675-0.109 0.981-0.327 0.89925-0.545 0.89925-1.6623 0-0.6267-0.327-1.1445-0.29975-0.5177-0.84475-0.7902-0.29975-0.1635-0.8175-0.2453-0.4905-0.082-1.1445-0.082h-3.3518q-1.635 0-2.7522-0.2725-1.09-0.2998-1.7985-0.9265-0.8175-0.7085-1.2808-1.744-0.436-1.0628-0.436-2.2345 0-1.7713 0.84475-3.1338 0.872-1.3897 2.3162-1.8802 0.29975-0.109 0.654-0.1908 0.35425-0.082 0.79025-0.109 0.46325-0.054 1.0628-0.054 0.5995-0.027 1.3898-0.027h8.9925v3.2427h-8.1205q-0.654 0-1.0355 0.027-0.35425 0-0.5995 0.027-0.24525 0-0.40875 0.027t-0.3815 0.082q-0.57225 0.1363-0.89925 0.654-0.327 0.4905-0.327 1.199 0 0.6268 0.2725 1.09 0.2725 0.4633 0.763 0.6813 0.40875 0.1907 0.84475 0.2452 0.46325 0.055 1.4442 0.055h2.9158q1.9892 0 3.1882 0.3543 1.199 0.327 1.9892 1.1445 0.62675 0.6267 0.981 1.7167 0.3815 1.09 0.3815 2.2618 0 1.4715-0.62675 2.725t-1.6895 1.9075q-0.327 0.218-0.73575 0.3542-0.40875 0.1363-0.981 0.218-0.545 0.082-1.2808 0.1363-0.73575 0.027-1.744 0.027h-9.1288v-3.2427z"/>
  <path d="m66.802 1026q1.8 0 1.8-1.47 0-0.72-0.405-1.035t-1.305-0.315h-3.075v2.82h2.985zm0.075-4.32q0.48 0 0.72-0.045 0.255-0.06 0.465-0.225 0.495-0.405 0.495-1.11 0-0.3-0.12-0.57-0.105-0.285-0.3-0.45-0.21-0.165-0.465-0.225t-0.78-0.06h-3.075v2.685h3.06zm-4.89-4.185h5.175q0.9 0 1.455 0.135 0.57 0.135 0.975 0.45 0.435 0.345 0.675 0.87 0.255 0.51 0.255 1.14 0 0.81-0.39 1.425-0.39 0.6-1.125 0.915 1.59 0.6 1.59 2.31 0 0.81-0.345 1.425-0.33 0.615-0.96 0.945-0.72 0.39-2.415 0.39h-4.89v-10.005z"/>
  <path d="m72.182 1027.5v-10.005h1.695v10.005h-1.695z"/>
  <path d="m80.658 1020.2h1.695v7.305h-3.525q-0.54 0-0.915-0.03-0.375-0.045-0.66-0.135-0.27-0.09-0.48-0.24-0.21-0.165-0.405-0.405-0.3-0.375-0.435-0.855-0.135-0.495-0.135-1.245v-4.395h1.695v4.455q0 0.855 0.315 1.185t1.11 0.33h1.74v-5.97z"/>
  <path d="m90.024 1024.5h-4.32q0.03 0.48 0.135 0.795 0.12 0.3 0.39 0.54 0.255 0.21 0.585 0.3 0.33 0.075 0.945 0.075h2.265v1.335h-2.58q-0.51 0-0.9-0.045t-0.705-0.15q-0.315-0.12-0.57-0.285-0.255-0.18-0.495-0.435-0.39-0.435-0.645-1.125-0.24-0.69-0.24-1.41 0-0.945 0.3-1.755 0.315-0.825 0.84-1.305 0.465-0.42 1.065-0.6 0.6-0.195 1.5-0.195h2.43v1.335h-2.235q-1.035 0-1.5 0.345-0.45 0.345-0.57 1.245h4.305v1.335z"/>
  <path d="m103.03 1027.5h-3.27q-0.66 0-1.185-0.06t-0.945-0.18q-0.42-0.135-0.765-0.33-0.33-0.21-0.615-0.495-0.63-0.63-0.975-1.635-0.33-1.005-0.33-2.25 0-1.545 0.525-2.73 0.525-1.2 1.455-1.74 0.48-0.3 1.2-0.435 0.72-0.15 1.62-0.15h3.285v1.5h-3.12q-0.9 0-1.44 0.195-0.525 0.18-0.87 0.6-0.3 0.405-0.48 1.125-0.18 0.705-0.18 1.575 0 1.005 0.24 1.77 0.24 0.75 0.675 1.14 0.345 0.33 0.84 0.465t1.32 0.135h3.015v1.5z"/>
  <path d="m107.15 1024.4q-0.345 0-0.51 0.015-0.15 0.015-0.285 0.075-0.48 0.195-0.48 0.825 0 0.48 0.285 0.675 0.3 0.195 0.99 0.195h2.385v-1.785h-2.385zm2.385-1.335q0-0.48-0.045-0.69-0.03-0.21-0.165-0.405-0.165-0.24-0.465-0.33-0.285-0.09-0.915-0.09h-3.42v-1.335h3.585q0.57 0 0.975 0.045 0.405 0.03 0.69 0.12 0.3 0.075 0.51 0.225 0.21 0.135 0.39 0.345 0.315 0.375 0.435 0.84t0.12 1.335v4.395h-3.93q-0.555 0-0.93-0.015t-0.63-0.06q-0.255-0.06-0.45-0.135-0.18-0.09-0.36-0.225-0.795-0.615-0.795-1.755 0-0.705 0.3-1.245 0.315-0.54 0.84-0.78 0.495-0.24 1.725-0.24h2.535z"/>
  <path d="m113.74 1017.5h1.695v2.7h2.025v1.335h-2.025v3.3q0 0.435 0.045 0.69t0.165 0.405q0.135 0.15 0.36 0.195 0.24 0.045 0.63 0.045h0.825v1.335h-1.44q-0.69 0-1.065-0.105-0.36-0.105-0.66-0.375-0.3-0.3-0.435-0.735-0.12-0.435-0.12-1.23v-3.525h-1.335v-1.335h1.335v-2.7z"/>
  <path d="m118.61 1021.6v-4.02h1.125v4.02h-1.125z"/>
  <path d="m127.64 1021.6h-3.405q-0.555 0-0.765 0.03t-0.345 0.12q-0.27 0.21-0.27 0.69 0 0.255 0.06 0.42 0.06 0.15 0.21 0.24t0.42 0.12 0.69 0.03h1.08q0.405 0 0.705 0.015 0.315 0.015 0.54 0.06t0.39 0.12 0.315 0.18q0.33 0.24 0.51 0.69 0.18 0.435 0.18 0.99 0 0.72-0.3 1.29-0.285 0.57-0.78 0.78-0.24 0.12-0.6 0.165-0.36 0.03-1.095 0.03h-3.99v-1.335h3.54q0.465 0 0.72-0.015t0.39-0.06q0.405-0.105 0.405-0.705 0-0.615-0.42-0.75-0.105-0.03-0.315-0.045-0.195-0.015-0.63-0.015h-0.885q-0.48 0-0.81-0.015-0.33-0.03-0.57-0.075t-0.42-0.12q-0.165-0.09-0.33-0.225-0.345-0.3-0.555-0.78-0.21-0.495-0.21-1.035 0-0.585 0.24-1.08 0.255-0.495 0.69-0.75 0.285-0.165 0.66-0.225 0.375-0.075 1.005-0.075h3.945v1.335z"/>
 </g>
</svg>
