<?xml version="1.0" encoding="UTF-8" standalone="no"?>
<svg xmlns:rdf="http://www.w3.org/1999/02/22-rdf-syntax-ns#" xmlns="http://www.w3.org/2000/svg" enable-background="new 0 0 968 805.57" xml:space="preserve" height="102.78" viewBox="0 0 332.00127 102.78201" width="332" version="1.1" y="0px" x="0px" xmlns:cc="http://creativecommons.org/ns#" xmlns:dc="http://purl.org/dc/elements/1.1/"><g clip-rule="evenodd" fill-rule="evenodd" transform="matrix(.14936 0 0 .14936 1 1)" stroke-width="12.5"><path d="m824.34 597.86v-148.24h23.163v148.24h-23.163zm-155.33 69.744v-297.52c14.408-4.653 29.739-7.173 45.646-7.173 32.159 0 61.964 10.284 86.521 27.784v256.29c-24.557 17.5-54.361 27.784-86.521 27.784-15.907 0-31.238-2.519-45.646-7.172zm6.73-322.57c-32.37-111-132.63-191.9-251.31-191.9-0.228 0-0.453 0.008-0.681 0.009v-61.518c0.228-0.001 0.453-0.009 0.681-0.009 150.97 0 277.68 106.57 312.65 250.41-7.343-0.971-14.827-1.476-22.427-1.476-13.38 0-26.404 1.556-38.915 4.494zm-503.98 0c-12.51-2.938-25.536-4.494-38.914-4.494-7.6 0-15.085 0.505-22.428 1.476 34.972-143.84 161.68-250.41 312.65-250.41 0.229 0 0.454 0.008 0.683 0.009v61.518c-0.229 0-0.454-0.009-0.683-0.009-118.68 0-218.93 80.906-251.31 191.91zm6.731 25.055v297.52c-14.409 4.653-29.739 7.173-45.645 7.173-32.16 0-61.966-10.284-86.522-27.784v-256.29c24.556-17.5 54.362-27.784 86.522-27.784 15.906 0 31.236 2.52 45.645 7.173zm-178.49 79.54h23.163v148.24h-23.163v-148.24z" fill="#1e79b4"/><path d="m548.19 91.555c21.03-22.5 48.06-42.019 79.27-57.599 51.41-25.674 91.64-33.956 91.64-33.956s19.748 68.552 25.997 133.74c5.067 52.851 10.622 141.54 6.024 170.61-33.64-97.77-108.29-175.85-202.93-212.8zm-450.23 208.22c-3.477-32.9 1.79-115.72 6.619-166.04 6.24-65.188 25.99-133.74 25.99-133.74s40.23 8.282 91.65 33.956c30.911 15.434 57.731 34.734 78.67 56.968-93.912 36.117-168.36 112.68-202.93 208.86z" fill="#44b5ff"/><path d="m636.63 532c-6.167 4.333-11.167 1.667-13 0s-8.167-12-11-12c-3.95 0-6.622 9.355-13.641 22.61-7.181 13.56-16.612 27.39-29.359 27.39-12.711 0-21.974-14.495-28.051-29.579-6.593-16.364-10.813-33.421-13.949-33.421-4.07 0-8.425 28.052-15.282 54.877-6.283 24.576-13.738 48.123-30.718 48.123-21.968 0-32.267-73.902-42.085-137.19-13.039-87.417-14.998-88.813-16.915-88.813s-3.542 1.063-16.915 88.813c-9.818 63.285-20.118 137.19-42.085 137.19-16.98 0-24.435-23.547-30.718-48.123-6.857-26.825-11.211-54.877-15.282-54.877-3.136 0-7.356 17.057-13.949 33.421-6.077 15.084-15.34 29.579-28.051 29.579-12.748 0-22.178-13.83-29.359-27.39-7.019-13.255-9.691-22.61-13.641-22.61-2.833 0-9.167 10.333-11 12s-6.833 4.333-13 0-4.667-9.667-4-13 9.5-23 31-23c8.292 0 16.555 9.142 22.723 19.445 7.966 13.308 13.106 28.555 17.277 28.555 7.4 0 15.233-66 43-66 15.707 0 23.665 23.791 30.063 48.09 6.955 26.411 10.14 49.91 13.937 49.91 2.135 0 10.512-53.453 20.857-108.82 11.461-61.348 13.776-117.18 39.143-117.18s27.682 55.827 39.143 117.18c10.344 55.372 18.722 108.82 20.857 108.82 3.797 0 6.982-23.499 13.938-49.91 6.397-24.299 14.356-48.09 30.063-48.09 27.767 0 35.6 66 43 66 4.171 0 9.311-15.247 17.276-28.555 6.169-10.304 14.432-19.445 22.724-19.445 21.5 0 30.333 19.667 31 23s2.166 8.667-4.001 13z" fill="#44b5ff"/></g><g transform="matrix(.14936 0 0 .14936 4.7206 -8.1016)" stroke-width="12.5" fill="#1e79b4"><path d="m1070.8 299.8q30 0 30-24.5 0-12-6.75-17.25t-21.75-5.25h-51.25v47h49.75zm1.25-72q8 0 12-0.75 4.25-1 7.75-3.75 8.25-6.75 8.25-18.5 0-5-2-9.5-1.75-4.75-5-7.5-3.5-2.75-7.75-3.75t-13-1h-51.25v44.75h51zm-81.5-69.75h86.25q15 0 24.25 2.25 9.5 2.25 16.25 7.5 7.25 5.75 11.25 14.5 4.25 8.5 4.25 19 0 13.5-6.5 23.75-6.5 10-18.75 15.25 26.5 10 26.5 38.5 0 13.5-5.75 23.75-5.5 10.25-16 15.75-12 6.5-40.25 6.5h-81.5v-166.75z"/><path d="m1189.5 158.05v95.5q0 15.5 1.75 24 2 8.5 6.25 12.75 9.75 9.5 36.5 9.5h35v25h-39.5q-11 0-19.5-0.75-8.25-0.75-14.75-2.5-6.5-2-11.5-5t-9.5-7.5q-8.25-8-11.75-20.25-3.5-12.5-3.5-33.5v-97.25h30.5z"/><path d="m1313 257.55q0 13.5 1.75 21 2 7.5 7 12.5 10.75 11.5 32.5 11.5 13.5 0 23.25-4.25t14-12.25q2.25-4.25 3-10.75 1-6.5 1-19v-98.25h30.5v97.5q0 11-1 19.25-0.75 8.25-2.75 14.75-1.75 6.25-5 11t-7.75 8.75q-19.25 17.5-57.25 17.5-39.75 0-57.5-21.5-3.5-4.25-5.75-8.75t-3.75-10q-1.5-5.75-2.25-12.75-0.5-7-0.5-16v-99.75h30.5v99.5z"/><path d="m1580.8 183.05h-47.5q-8.75 0-15.25 1-6.5 0.75-11.5 2.75-5 1.75-8.75 5-3.5 3-6.5 7.5-2 2.75-3.25 5.5-1 2.75-2 6-0.75 3.25-1.25 7.75-0.5 4.25-1 10.25h97v25h-97q0.75 23.75 12.5 35 12 11 37 11h47.5v25h-51q-23.25 0-37.75-5t-23.75-16q-18.75-22.5-18.75-61.25 0-24 7.25-42t21.5-29.25q8.75-7 20.25-10 11.75-3.25 29.5-3.25h52.75v25z"/><path d="m1797.7 324.8h-54.5q-11 0-19.75-1t-15.75-3q-7-2.25-12.75-5.5-5.5-3.5-10.25-8.25-10.5-10.5-16.25-27.25-5.5-16.75-5.5-37.5 0-25.75 8.75-45.5 8.75-20 24.25-29 8-5 20-7.25 12-2.5 27-2.5h54.75v25h-52q-15 0-24 3.25-8.75 3-14.5 10-5 6.75-8 18.75-3 11.75-3 26.25 0 16.75 4 29.5 4 12.5 11.25 19 5.75 5.5 14 7.75t22 2.25h50.25v25z"/><path d="m1869.7 258.55h55.75l-27.5-71.5-28.25 71.5zm9.75-100.5h37.75l67.5 166.75h-34.5l-16.5-41.25h-72l-17 41.25h-34.25l69-166.75z"/><path d="m1965.7 183.05v-25h142.75v25h-56.5v141.75h-30.5v-141.75h-55.75z"/><path d="m1219.3 468.55h55.75l-27.5-71.5-28.25 71.5zm9.75-100.5h37.75l67.5 166.75h-34.5l-16.5-41.25h-72l-17 41.25h-34.25l69-166.75z"/><path d="m1373.1 467.55q0 13.5 1.75 21 2 7.5 7 12.5 10.75 11.5 32.5 11.5 13.5 0 23.25-4.25t14-12.25q2.25-4.25 3-10.75 1-6.5 1-19v-98.25h30.5v97.5q0 11-1 19.25-0.75 8.25-2.75 14.75-1.75 6.25-5 11t-7.75 8.75q-19.25 17.5-57.25 17.5-39.75 0-57.5-21.5-3.5-4.25-5.75-8.75t-3.75-10q-1.5-5.75-2.25-12.75-0.5-7-0.5-16v-99.75h30.5v99.5z"/><path d="m1549.4 509.8h39.25q26.75 0 36.75-14.5 4.75-6.75 7.5-18.25 3-11.75 3-24 0-15-3.75-28.5t-10-20.25q-5.5-6-13.5-8.5-7.75-2.75-21-2.75h-38.25v116.75zm36.5-141.75q13 0 22.75 1t17.25 3.5q7.75 2.5 13.5 6.5 6 3.75 11 9.5 9.25 10.5 14 26.5 4.75 15.75 4.75 35.5 0 26-7.5 45.25-7.25 19-21 28.25-4.5 3.25-9.25 5.25t-11 3.25q-6 1.25-14 1.75t-19.25 0.5h-68.25v-166.75h67z"/><path d="m1695.1 368.05h30.5v166.75h-30.5v-166.75z"/><path d="m1833.3 390.55q-14.5 0-25.25 5.5t-16 16q-3.5 6.5-5.25 16.5t-1.75 22.25q0 32.25 11.5 47 11.5 14.5 36.75 14.5t36.5-14.25q11.5-14.5 11.5-46.5t-11.5-46.5-36.5-14.5zm1.75-24.25q22.25 0 39 7.25 16.75 7 26.25 20.5 7 10.25 10.5 25 3.75 14.75 3.75 33 0 42-20.25 63.25t-60.5 21.25q-22.75 0-40-7t-26.75-20.25q-7.25-10-11.25-25-4-15.25-4-32.5 0-42.75 20.75-64 21-21.5 62.5-21.5z"/></g><g transform="matrix(.14936 0 0 .14936 -4.1351 20.955)" stroke-width="12.5" fill="#1e79b4"><path d="m1009.1 440.9h12.125v51.25h22.375v-51.25h12.125v60.875h-56.625q-4.75 0-8.25-0.375t-6-1.25-4.375-2.375-3.375-3.75q-1.125-1.625-1.875-3.125-0.625-1.5-1-3.5-0.25-2.125-0.375-5.125-0.125-3.125-0.125-7.875v-33.5h12.125v34.875q0 3.25 0 5.25 0.125 2 0.25 3.375 0.25 1.375 0.5 2.25 0.375 0.875 1 1.625 1.375 2.125 4 3 2.75 0.875 7.5 0.875h10v-51.25z"/><path d="m1107.5 440.9h12.125v51.25h22.375v-51.25h12.125v60.875h-56.625q-4.75 0-8.25-0.375t-6-1.25-4.375-2.375-3.375-3.75q-1.125-1.625-1.875-3.125-0.625-1.5-1-3.5-0.25-2.125-0.375-5.125-0.125-3.125-0.125-7.875v-33.5h12.125v34.875q0 3.25 0 5.25 0.125 2 0.25 3.375 0.25 1.375 0.5 2.25 0.375 0.875 1 1.625 1.375 2.125 4 3 2.75 0.875 7.5 0.875h10v-51.25z"/><path d="m1205.9 440.9h12.125v51.25h22.375v-51.25h12.125v60.875h-56.625q-4.75 0-8.25-0.375t-6-1.25-4.375-2.375-3.375-3.75q-1.125-1.625-1.875-3.125-0.625-1.5-1-3.5-0.25-2.125-0.375-5.125-0.125-3.125-0.125-7.875v-33.5h12.125v34.875q0 3.25 0 5.25 0.125 2 0.25 3.375 0.25 1.375 0.5 2.25 0.375 0.875 1 1.625 1.375 2.125 4 3 2.75 0.875 7.5 0.875h10v-51.25z"/><path d="m1280.4 501.77h-12.5v-13.5h12.5v13.5z"/><path d="m1308 492.15h14.125q6 0 9.375-1.5 3.5-1.5 5.375-4.875 2.875-5.375 2.875-14.5 0-11.125-4-15.875-3.875-4.875-13.125-4.875h-14.625v41.625zm16.875-51.25q7.75 0 12.25 1.625 4.625 1.625 8.125 5.625 3.5 3.75 5.25 9.5 1.75 5.625 1.75 12.75 0 7.625-1.75 13.625-1.625 6-4.875 9.875-1.875 2.25-4.125 3.75t-5.25 2.5q-2.875 0.875-6.875 1.25t-9.5 0.375h-24v-83.375h12.125v22.5h16.875z"/><path d="m1365.3 501.77v-83.375h12.125v83.375h-12.125z"/><path d="m1434 440.9h12.125v60.875h-26.5q-5 0-8.625-0.375-3.5-0.375-6.125-1.375t-4.5-2.5q-1.75-1.625-3.375-4.125-1.875-2.875-2.625-6.5t-0.75-10v-36h12.125v35.5q0 4.75 0.375 7t1.375 4q1.375 2.5 4.5 3.625t8.625 1.125h13.375v-51.25z"/><path d="m1508.8 475.27h-36.5q0 4.625 1 7.625 1 2.875 3.25 5.25 2.125 2.125 5.375 3.125 3.375 0.875 9.375 0.875h17.5v9.625h-20.75q-4 0-7-0.25-3-0.375-5.375-1t-4.25-1.75-3.625-2.75q-4-3.875-6.25-9.875-2.125-6-2.125-13.75 0-9.75 3.5-16.75t10.375-10.875q3.5-2.125 7.75-3t10.25-0.875h17.5v9.625h-15.75q-5.125 0-8.75 0.75-3.5 0.75-6 2.625-2.375 1.75-3.875 4.625-1.375 2.875-2.125 7.125h36.5v9.625z"/><path d="m1569 450.52h-19.375q-10 0-14.25 4.875-4.125 4.75-4.125 16 0 12.375 5.375 17.375 2.125 1.875 5 2.625t8 0.75h19.375v9.625h-19.375q-4.75 0-8.25-0.375t-6.25-1.125q-2.75-0.875-4.875-2.125-2.125-1.375-3.875-3.375-3.625-4-5.625-9.75-2-5.875-2-12.625 0-7.125 2-13.125t6-10.25q2-2.25 4.25-3.75 2.25-1.625 5-2.5 2.75-1 6-1.375 3.375-0.5 7.625-0.5h19.375v9.625z"/><path d="m1602.6 474.27q-6.5 0-9.25 2.125-2.625 2-2.625 6.875t2.625 6.875q2.75 2 9.25 2h20.25v-17.875h-20.25zm20.25-9.625q0-4.625-0.5-7.375-0.375-2.875-1.875-4.375-1.375-1.5-4.125-1.875-2.75-0.5-7.25-0.5h-28.625v-9.625h31.25q8.125 0 12.375 1.25 4.375 1.25 7 4.375 2.25 2.625 3 6.25 0.875 3.625 0.875 10.5v38.5h-30.875q-4.5 0-7.5-0.125-3-0.25-5.25-0.625-2.125-0.5-3.75-1.25-1.5-0.75-3.125-2-6.25-5.125-6.25-14.25 0-5.5 2.125-9.875t5.875-6.5q2.25-1.375 5.75-1.875 3.625-0.625 9.25-0.625h21.625z"/><path d="m1656.5 418.4h12.125v22.5h17.625v9.625h-17.625v32q0 3.25 0.25 5.125 0.375 1.875 1.5 2.875t3.125 1.375q2.125 0.25 5.625 0.25h7.125v9.625h-11.625q-5.875 0-8.875-0.75-2.875-0.75-5.125-2.875t-3.25-5.5q-0.875-3.375-0.875-9.125v-33h-11.625v-9.625h11.625v-22.5z"/><path d="m1718.5 474.27q-6.5 0-9.25 2.125-2.625 2-2.625 6.875t2.625 6.875q2.75 2 9.25 2h20.25v-17.875h-20.25zm20.25-9.625q0-4.625-0.5-7.375-0.375-2.875-1.875-4.375-1.375-1.5-4.125-1.875-2.75-0.5-7.25-0.5h-28.625v-9.625h31.25q8.125 0 12.375 1.25 4.375 1.25 7 4.375 2.25 2.625 3 6.25 0.875 3.625 0.875 10.5v38.5h-30.875q-4.5 0-7.5-0.125-3-0.25-5.25-0.625-2.125-0.5-3.75-1.25-1.5-0.75-3.125-2-6.25-5.125-6.25-14.25 0-5.5 2.125-9.875t5.875-6.5q2.25-1.375 5.75-1.875 3.625-0.625 9.25-0.625h21.625z"/><path d="m1806.9 440.9h12.125v60.875h-26.5q-5 0-8.625-0.375-3.5-0.375-6.125-1.375t-4.5-2.5q-1.75-1.625-3.375-4.125-1.875-2.875-2.625-6.5t-0.75-10v-36h12.125v35.5q0 4.75 0.375 7t1.375 4q1.375 2.5 4.5 3.625t8.625 1.125h13.375v-51.25z"/><path d="m1876.7 450.52h-13q-6.375 0-10 1.5-3.5 1.375-5.75 5-3.375 5-3.375 14.125 0 11.5 3.875 16.25t13.25 4.75h15v-41.625zm0-32.125h12.125v83.375h-27.125q-8.375 0-13.125-1.25-4.75-1.375-8.25-4.625-3.875-3.625-6.125-9.75-2.125-6.25-2.125-13.625 0-8.625 2.75-15.625 2.875-7.125 7.625-10.75 6.75-5.25 20.25-5.25h14v-22.5z"/><path d="m1906 418.4h12.125v12.625h-12.125v-12.625zm12.125 22.5v60.875h-12.125v-60.875h12.125z"/><path d="m1961.8 450.27q-8.875 0-13.625 5.625-4.625 5.5-4.625 16 0 10.125 4.625 15.375 4.625 5.125 13.625 5.125 18.875 0 18.875-20.5 0-10.625-4.875-16.125t-14-5.5zm1.25-10q14.5 0 22.25 8.125 7.875 8.125 7.875 23.25 0 14.625-8.125 22.75-8.125 8-22.875 8-15 0-23.125-7.625-8-7.75-8-22.125 0-7.125 2-13.125 2-6.125 5.875-10.375 4-4.625 9.875-6.75t14.25-2.125z"/><path d="m2016.7 501.77h-12.5v-13.5h12.5v13.5z"/><path d="m2078.2 450.52h-19.375q-10 0-14.25 4.875-4.125 4.75-4.125 16 0 12.375 5.375 17.375 2.125 1.875 5 2.625t8 0.75h19.375v9.625h-19.375q-4.75 0-8.25-0.375t-6.25-1.125q-2.75-0.875-4.875-2.125-2.125-1.375-3.875-3.375-3.625-4-5.625-9.75-2-5.875-2-12.625 0-7.125 2-13.125t6-10.25q2-2.25 4.25-3.75 2.25-1.625 5-2.5 2.75-1 6-1.375 3.375-0.5 7.625-0.5h19.375v9.625z"/><path d="m2117.6 450.27q-8.875 0-13.625 5.625-4.625 5.5-4.625 16 0 10.125 4.625 15.375 4.625 5.125 13.625 5.125 18.875 0 18.875-20.5 0-10.625-4.875-16.125t-14-5.5zm1.25-10q14.5 0 22.25 8.125 7.875 8.125 7.875 23.25 0 14.625-8.125 22.75-8.125 8-22.875 8-15 0-23.125-7.625-8-7.75-8-22.125 0-7.125 2-13.125 2-6.125 5.875-10.375 4-4.625 9.875-6.75t14.25-2.125z"/><path d="m2215.8 440.9q5.625 0 9.125 0.125t5.75 0.625q2.375 0.5 3.875 1.375 1.625 0.75 3.375 2.25 1.625 1.375 2.75 3.125 1.25 1.625 1.875 3.875 0.75 2.125 1 5.125 0.375 2.875 0.375 6.75v37.625h-12.125v-37.625q0-7.625-3-10.625t-10.75-3h-9.375v51.25h-12.125v-51.25h-22.5v51.25h-12.125v-60.875h53.875z"/></g></svg>
