<?xml version="1.0" encoding="UTF-8" standalone="no"?>
<svg xmlns:rdf="http://www.w3.org/1999/02/22-rdf-syntax-ns#" xmlns="http://www.w3.org/2000/svg" height="1168" width="16" version="1.1" xmlns:cc="http://creativecommons.org/ns#" xmlns:dc="http://purl.org/dc/elements/1.1/" viewBox="0 0 16 1168">
 <path d="m10.946 1148c2.2308-1.6276 2.7198-4.7554 1.0922-6.9862s-4.7554-2.7198-6.9862-1.0922c-2.2308 1.6276-2.7198 4.7554-1.0922 6.9862.30530.41846.67376.78687 1.0922 1.0922l-.8738 1.2c-1.6801-1.2-2.6766-3.1-2.678-5.2-.013626-3.5898 2.8855-6.511 6.4753-6.5247 3.5898-.013550 6.511 2.8855 6.5246 6.4753.0079212 2.0869-.98675 4.0508-2.6739 5.2793l-.880-1.3zm0-16c2.2308-1.6276 2.7198-4.7554 1.0922-6.9862s-4.7554-2.7198-6.9862-1.0922c-2.2308 1.6276-2.7198 4.7554-1.0922 6.9862.30530.41846.67376.78687 1.0922 1.0922l-.8738 1.2c-1.6801-1.2-2.6766-3.1-2.678-5.2-.013626-3.5898 2.8855-6.511 6.4753-6.5247 3.5898-.013550 6.511 2.8855 6.5246 6.4753.0079212 2.0869-.98675 4.0508-2.6739 5.2793l-.880-1.3zm0-16c2.2308-1.6276 2.7198-4.7554 1.0922-6.9862s-4.7554-2.7198-6.9862-1.0922c-2.2308 1.6276-2.7198 4.7554-1.0922 6.9862.30530.41846.67376.78687 1.0922 1.0922l-.8738 1.2c-1.6801-1.2-2.6766-3.1-2.678-5.2-.013626-3.5898 2.8855-6.511 6.4753-6.5247 3.5898-.013550 6.511 2.8855 6.5246 6.4753.0079212 2.0869-.98675 4.0508-2.6739 5.2793l-.880-1.3zm0-16c2.2308-1.6276 2.7198-4.7554 1.0922-6.9862s-4.7554-2.7198-6.9862-1.0922c-2.2308 1.6276-2.7198 4.7554-1.0922 6.9862.30530.41846.67376.78687 1.0922 1.0922l-.8738 1.2c-1.6801-1.2-2.6766-3.1-2.678-5.2-.013626-3.5898 2.8855-6.511 6.4753-6.5247 3.5898-.013550 6.511 2.8855 6.5246 6.4753.0079212 2.0869-.98675 4.0508-2.6739 5.2793l-.880-1.3zm0-16c2.2308-1.6276 2.7198-4.7554 1.0922-6.9862s-4.7554-2.7198-6.9862-1.0922c-2.2308 1.6276-2.7198 4.7554-1.0922 6.9862.30530.41846.67376.78687 1.0922 1.0922l-.8738 1.2c-1.6801-1.2-2.6766-3.1-2.678-5.2-.013626-3.5898 2.8855-6.511 6.4753-6.5247 3.5898-.013550 6.511 2.8855 6.5246 6.4753.0079212 2.0869-.98675 4.0508-2.6739 5.2793l-.880-1.3zm0-16c2.2308-1.6276 2.7198-4.7554 1.0922-6.9862s-4.7554-2.7198-6.9862-1.0922c-2.2308 1.6276-2.7198 4.7554-1.0922 6.9862.30530.41846.67376.78687 1.0922 1.0922l-.8738 1.2c-1.6801-1.2-2.6766-3.1-2.678-5.2-.013626-3.5898 2.8855-6.511 6.4753-6.5247 3.5898-.013550 6.511 2.8855 6.5246 6.4753.0079212 2.0869-.98675 4.0508-2.6739 5.2793l-.880-1.3zm0-16c2.2308-1.6276 2.7198-4.7554 1.0922-6.9862s-4.7554-2.7198-6.9862-1.0922c-2.2308 1.6276-2.7198 4.7554-1.0922 6.9862.30530.41846.67376.78687 1.0922 1.0922l-.8738 1.2c-1.6801-1.2-2.6766-3.1-2.678-5.2-.013626-3.5898 2.8855-6.511 6.4753-6.5247 3.5898-.013550 6.511 2.8855 6.5246 6.4753.0079212 2.0869-.98675 4.0508-2.6739 5.2793l-.880-1.3zm0-16c2.2308-1.6276 2.7198-4.7554 1.0922-6.9862s-4.7554-2.7198-6.9862-1.0922c-2.2308 1.6276-2.7198 4.7554-1.0922 6.9862.30530.41846.67376.78687 1.0922 1.0922l-.8738 1.2c-1.6801-1.2-2.6766-3.1-2.678-5.2-.013626-3.5898 2.8855-6.511 6.4753-6.5247 3.5898-.013550 6.511 2.8855 6.5246 6.4753.0079212 2.0869-.98675 4.0508-2.6739 5.2793l-.880-1.3zm0-16c2.2308-1.6276 2.7198-4.7554 1.0922-6.9862s-4.7554-2.7198-6.9862-1.0922c-2.2308 1.6276-2.7198 4.7554-1.0922 6.9862.30530.41846.67376.78693 1.0922 1.0922l-.8738 1.2c-1.6801-1.2-2.6766-3.1-2.678-5.2-.013626-3.5898 2.8855-6.511 6.4753-6.5246 3.5898-.013672 6.511 2.8854 6.5246 6.4753.0079212 2.087-.98675 4.0508-2.6739 5.2793l-.880-1.3zm0-16c2.2308-1.6276 2.7198-4.7554 1.0922-6.9862s-4.7554-2.7198-6.9862-1.0922c-2.2308 1.6276-2.7198 4.7554-1.0922 6.9862.30530.41846.67376.78693 1.0922 1.0922l-.8738 1.2c-1.6801-1.2-2.6766-3.1-2.678-5.2-.013626-3.5898 2.8855-6.511 6.4753-6.5246 3.5898-.013672 6.511 2.8854 6.5246 6.4753.0079212 2.087-.98675 4.0508-2.6739 5.2793l-.880-1.2zm0-15.98c2.2308-1.6276 2.7198-4.7554 1.0922-6.9862s-4.7554-2.7198-6.9862-1.0922c-2.2308 1.6276-2.7198 4.7554-1.0922 6.9862.30530.41846.67376.78693 1.0922 1.0922l-.8738 1.2c-2.8917-2.1169-3.5198-6.1772-1.4029-9.069s6.1772-3.5198 9.069-1.4029c1.674 1.22 2.661 3.18 2.656 5.25-.0031862 2.0713-.99713 4.0161-2.674 5.232l-.880-1.21zm0-16c2.2308-1.6276 2.7198-4.7554 1.0922-6.9862s-4.7554-2.7198-6.9862-1.0922c-2.2308 1.6276-2.7198 4.7554-1.0922 6.9862.30530.41846.67376.78693 1.0922 1.0922l-.8738 1.2c-2.8917-2.1169-3.5198-6.1772-1.4029-9.069s6.1772-3.5198 9.069-1.4029c1.674 1.22 2.661 3.18 2.656 5.25-.0031862 2.0713-.99713 4.0161-2.674 5.232l-.880-1.21zm0-16c2.2308-1.6276 2.7198-4.7554 1.0922-6.9862s-4.7554-2.7198-6.9862-1.0922c-2.2308 1.6276-2.7198 4.7554-1.0922 6.9862.30530.41846.67376.78693 1.0922 1.0922l-.8738 1.2c-2.8917-2.1169-3.5198-6.1772-1.4029-9.069s6.1772-3.5198 9.069-1.4029c1.674 1.22 2.661 3.18 2.656 5.25-.0031862 2.0713-.99713 4.0161-2.674 5.232l-.880-1.21zm0-16c2.2308-1.6276 2.7198-4.7554 1.0922-6.9862s-4.7554-2.7198-6.9862-1.0922c-2.2308 1.6276-2.7198 4.7554-1.0922 6.9862.30530.41846.67376.78693 1.0922 1.0922l-.8738 1.2c-2.8917-2.1169-3.5198-6.1772-1.4029-9.069s6.1772-3.5198 9.069-1.4029c1.674 1.22 2.661 3.18 2.656 5.25-.0031862 2.0713-.99713 4.0161-2.674 5.232l-.880-1.21zm0-16c2.2308-1.6276 2.7198-4.7554 1.0922-6.9862s-4.7554-2.7198-6.9862-1.0922c-2.2308 1.6276-2.7198 4.7554-1.0922 6.9862.30530.41846.67376.78693 1.0922 1.0922l-.8738 1.2c-2.8917-2.1169-3.5198-6.1772-1.4029-9.069s6.1772-3.5198 9.069-1.4029c1.674 1.22 2.661 3.18 2.656 5.25-.0031862 2.0713-.99713 4.0161-2.674 5.232l-.880-1.21zm0-16c2.2308-1.6276 2.7198-4.7554 1.0922-6.9862s-4.7554-2.7198-6.9862-1.0922c-2.2308 1.6276-2.7198 4.7554-1.0922 6.9862.30530.41846.67376.78693 1.0922 1.0922l-.8738 1.2c-2.8917-2.1169-3.5198-6.1772-1.4029-9.069s6.1772-3.5198 9.069-1.4029c1.674 1.22 2.661 3.18 2.656 5.25-.0031862 2.0713-.99713 4.0161-2.674 5.232l-.880-1.21zm0-16c2.2308-1.6276 2.7198-4.7554 1.0922-6.9862s-4.7554-2.7198-6.9862-1.0922c-2.2308 1.6276-2.7198 4.7554-1.0922 6.9862.30530.41846.67376.78693 1.0922 1.0922l-.8738 1.2c-2.8917-2.1169-3.5198-6.1772-1.4029-9.069s6.1772-3.5198 9.069-1.4029c1.674 1.22 2.661 3.18 2.656 5.25-.0031862 2.0713-.99713 4.0161-2.674 5.232l-.880-1.21zm0-16c2.2308-1.6276 2.7198-4.7554 1.0922-6.9862s-4.7554-2.7198-6.9862-1.0922c-2.2308 1.6276-2.7198 4.7554-1.0922 6.9862.30530.41846.67376.78693 1.0922 1.0922l-.8738 1.2c-2.8917-2.1169-3.5198-6.1772-1.4029-9.069s6.1772-3.5198 9.069-1.4029c1.674 1.22 2.661 3.18 2.656 5.25-.0031862 2.0713-.99713 4.0161-2.674 5.232l-.880-1.21zm0-16c2.2308-1.6276 2.7198-4.7554 1.0922-6.9862s-4.7554-2.7198-6.9862-1.0922c-2.2308 1.6276-2.7198 4.7554-1.0922 6.9862.30530.41846.67376.78693 1.0922 1.0922l-.8738 1.2c-2.8917-2.1169-3.5198-6.1772-1.4029-9.069s6.1772-3.5198 9.069-1.4029c1.674 1.22 2.661 3.18 2.656 5.25-.0031862 2.0713-.99713 4.0161-2.674 5.232l-.880-1.21zm0-16c2.2308-1.6276 2.7198-4.7554 1.0922-6.9862s-4.7554-2.7198-6.9862-1.0922c-2.2308 1.6276-2.7198 4.7554-1.0922 6.9862.30530.41846.67376.78693 1.0922 1.0922l-.8738 1.2c-2.8917-2.1169-3.5198-6.1772-1.4029-9.069s6.1772-3.5198 9.069-1.4029c1.674 1.22 2.661 3.18 2.656 5.25-.0031862 2.0713-.99713 4.0161-2.674 5.232l-.880-1.21zm0-16c2.2308-1.6276 2.7198-4.7554 1.0922-6.9862s-4.7554-2.7198-6.9862-1.0922c-2.2308 1.6276-2.7198 4.7554-1.0922 6.9862.30530.41846.67376.78693 1.0922 1.0922l-.8738 1.2c-2.8917-2.1169-3.5198-6.1772-1.4029-9.069s6.1772-3.5198 9.069-1.4029c1.674 1.22 2.661 3.18 2.656 5.25-.0031862 2.0713-.99713 4.0161-2.674 5.232l-.880-1.21zm0-16c2.2308-1.6276 2.7198-4.7554 1.0922-6.9862s-4.7554-2.7198-6.9862-1.0922c-2.2308 1.6276-2.7198 4.7554-1.0922 6.9862.30530.41846.67376.78693 1.0922 1.0922l-.8738 1.2c-2.8917-2.1169-3.5198-6.1772-1.4029-9.069s6.1772-3.5198 9.069-1.4029c1.674 1.22 2.661 3.18 2.656 5.25-.0031862 2.0713-.99713 4.0161-2.674 5.232l-.880-1.21zm0-16c2.2308-1.6276 2.7198-4.7554 1.0922-6.9862s-4.7554-2.7198-6.9862-1.0922c-2.2308 1.6276-2.7198 4.7554-1.0922 6.9862.30530.41846.67376.78693 1.0922 1.0922l-.8738 1.2c-2.8917-2.1169-3.5198-6.1772-1.4029-9.069s6.1772-3.5198 9.069-1.4029c1.674 1.22 2.661 3.18 2.656 5.25-.0031862 2.0713-.99713 4.0161-2.674 5.232l-.880-1.21zm0-16c2.2308-1.6276 2.7198-4.7554 1.0922-6.9862s-4.7554-2.7198-6.9862-1.0922c-2.2308 1.6276-2.7198 4.7554-1.0922 6.9862.30530.41846.67376.78693 1.0922 1.0922l-.8738 1.2c-2.8917-2.1169-3.5198-6.1772-1.4029-9.069s6.1772-3.5198 9.069-1.4029c1.674 1.22 2.661 3.18 2.656 5.25-.0031862 2.0713-.99713 4.0161-2.674 5.232l-.880-1.21zm0-16c2.2308-1.6276 2.7198-4.7554 1.0922-6.9862s-4.7554-2.7198-6.9862-1.0922c-2.2308 1.6276-2.7198 4.7554-1.0922 6.9862.30530.41846.67376.78693 1.0922 1.0922l-.8738 1.2c-2.8917-2.1169-3.5198-6.1772-1.4029-9.069s6.1772-3.5198 9.069-1.4029c1.674 1.22 2.661 3.18 2.656 5.25-.0031862 2.0713-.99713 4.0161-2.674 5.232l-.880-1.21zm0-16c2.2308-1.6276 2.7198-4.7554 1.0922-6.9862s-4.7554-2.7198-6.9862-1.0922c-2.2308 1.6276-2.7198 4.7554-1.0922 6.9862.30530.41846.67376.78693 1.0922 1.0922l-.8738 1.2c-2.8917-2.1169-3.5198-6.1772-1.4029-9.069s6.1772-3.5198 9.069-1.4029c1.674 1.22 2.661 3.18 2.656 5.25-.0031862 2.0713-.99713 4.0161-2.674 5.232l-.880-1.21zm0-16c2.2308-1.6276 2.7198-4.7554 1.0922-6.9862s-4.7554-2.7198-6.9862-1.0922c-2.2308 1.6276-2.7198 4.7554-1.0922 6.9862.30530.41846.67376.78693 1.0922 1.0922l-.8738 1.2c-2.8917-2.1169-3.5198-6.1772-1.4029-9.069s6.1772-3.5198 9.069-1.4029c1.674 1.22 2.661 3.18 2.656 5.25-.0031862 2.0713-.99713 4.0161-2.674 5.232l-.880-1.21zm0-16c2.2308-1.6276 2.7198-4.7554 1.0922-6.9862s-4.7554-2.7198-6.9862-1.0922c-2.2308 1.6276-2.7198 4.7554-1.0922 6.9862.30530.41846.67376.78693 1.0922 1.0922l-.8738 1.2c-2.8917-2.1169-3.5198-6.1772-1.4029-9.069s6.1772-3.5198 9.069-1.4029c1.674 1.22 2.661 3.18 2.656 5.25-.0031862 2.0713-.99713 4.0161-2.674 5.232l-.880-1.21zm0-16c2.2308-1.6276 2.7198-4.7554 1.0922-6.9862s-4.7554-2.7198-6.9862-1.0922c-2.2308 1.6276-2.7198 4.7554-1.0922 6.9862.30530.41846.67376.78693 1.0922 1.0922l-.8738 1.2c-2.8917-2.1169-3.5198-6.1772-1.4029-9.069s6.1772-3.5198 9.069-1.4029c1.674 1.22 2.661 3.18 2.656 5.25-.0031862 2.0713-.99713 4.0161-2.674 5.232l-.880-1.21zm0-16c2.2308-1.6276 2.7198-4.7554 1.0922-6.9862s-4.7554-2.7198-6.9862-1.0922c-2.2308 1.6276-2.7198 4.7554-1.0922 6.9862.30530.41846.67376.78693 1.0922 1.0922l-.8738 1.2c-2.8917-2.1169-3.5198-6.1772-1.4029-9.069s6.1772-3.5198 9.069-1.4029c1.674 1.22 2.661 3.18 2.656 5.25-.0031862 2.0713-.99713 4.0161-2.674 5.232l-.880-1.21zm0-16c2.2308-1.6276 2.7198-4.7554 1.0922-6.9862s-4.7554-2.7198-6.9862-1.0922c-2.2308 1.6276-2.7198 4.7554-1.0922 6.9862.30530.41846.67376.78693 1.0922 1.0922l-.8738 1.2c-2.8917-2.1169-3.5198-6.1772-1.4029-9.069s6.1772-3.5198 9.069-1.4029c1.674 1.22 2.661 3.18 2.656 5.25-.0031862 2.0713-.99713 4.0161-2.674 5.232l-.880-1.21zm0-16c2.2308-1.6276 2.7198-4.7554 1.0922-6.9862s-4.7554-2.7198-6.9862-1.0922c-2.2308 1.6276-2.7198 4.7554-1.0922 6.9862.30530.41846.67376.78693 1.0922 1.0922l-.8738 1.2c-2.8917-2.1169-3.5198-6.1772-1.4029-9.069s6.1772-3.5198 9.069-1.4029c1.674 1.22 2.661 3.18 2.656 5.25-.0031862 2.0713-.99713 4.0161-2.674 5.232l-.880-1.21zm0-16c2.2308-1.6276 2.7198-4.7554 1.0922-6.9862s-4.7554-2.7198-6.9862-1.0922c-2.2308 1.6276-2.7198 4.7554-1.0922 6.9862.30530.41846.67376.78693 1.0922 1.0922l-.8738 1.2c-2.8917-2.1169-3.5198-6.1772-1.4029-9.069s6.1772-3.5198 9.069-1.4029c1.674 1.22 2.661 3.18 2.656 5.25-.0031862 2.0713-.99713 4.0161-2.674 5.232l-.880-1.21zm0-16c2.2308-1.6276 2.7198-4.7554 1.0922-6.9862s-4.7554-2.7198-6.9862-1.0922c-2.2308 1.6276-2.7198 4.7554-1.0922 6.9862.30530.41846.67376.78693 1.0922 1.0922l-.8738 1.2c-2.8917-2.1169-3.5198-6.1772-1.4029-9.069s6.1772-3.5198 9.069-1.4029c1.674 1.22 2.661 3.18 2.656 5.25-.0031862 2.0713-.99713 4.0161-2.674 5.232l-.880-1.21zm0-16c2.2308-1.6276 2.7198-4.7554 1.0922-6.9862s-4.7554-2.7198-6.9862-1.0922c-2.2308 1.6276-2.7198 4.7554-1.0922 6.9862.30530.41846.67376.78693 1.0922 1.0922l-.8738 1.2c-2.8917-2.1169-3.5198-6.1772-1.4029-9.069s6.1772-3.5198 9.069-1.4029c1.674 1.22 2.661 3.18 2.656 5.25-.0031862 2.0713-.99713 4.0161-2.674 5.232l-.880-1.21zm0-16c2.2308-1.6276 2.7198-4.7554 1.0922-6.9862s-4.7554-2.7198-6.9862-1.0922c-2.2308 1.6276-2.7198 4.7554-1.0922 6.9862.30530.41846.67376.78693 1.0922 1.0922l-.8738 1.2c-2.8917-2.1169-3.5198-6.1772-1.4029-9.069s6.1772-3.5198 9.069-1.4029c1.674 1.22 2.661 3.18 2.656 5.25-.0031862 2.0713-.99713 4.0161-2.674 5.232l-.880-1.21zm0-16c2.2308-1.6276 2.7198-4.7554 1.0922-6.9862s-4.7554-2.7198-6.9862-1.0922c-2.2308 1.6276-2.7198 4.7554-1.0922 6.9862.30530.41846.67376.78693 1.0922 1.0922l-.8738 1.2c-2.8917-2.1169-3.5198-6.1772-1.4029-9.069s6.1772-3.5198 9.069-1.4029c1.674 1.22 2.661 3.18 2.656 5.25-.0031862 2.0713-.99713 4.0161-2.674 5.232l-.880-1.21zm0-16c2.2308-1.6276 2.7198-4.7554 1.0922-6.9862s-4.7554-2.7198-6.9862-1.0922c-2.2308 1.6276-2.7198 4.7554-1.0922 6.9862.30530.41846.67376.78693 1.0922 1.0922l-.8738 1.2c-2.8917-2.1169-3.5198-6.1772-1.4029-9.069s6.1772-3.5198 9.069-1.4029c1.674 1.22 2.661 3.18 2.656 5.25-.0031862 2.0713-.99713 4.0161-2.674 5.232l-.880-1.21zm0-16c2.2308-1.6276 2.7198-4.7554 1.0922-6.9862s-4.7554-2.7198-6.9862-1.0922c-2.2308 1.6276-2.7198 4.7554-1.0922 6.9862.30530.41846.67376.78693 1.0922 1.0922l-.8738 1.2c-2.8917-2.1169-3.5198-6.1772-1.4029-9.069s6.1772-3.5198 9.069-1.4029c1.674 1.22 2.661 3.18 2.656 5.25-.0031862 2.0713-.99713 4.0161-2.674 5.232l-.880-1.21zm0-16c2.2308-1.6276 2.7198-4.7554 1.0922-6.9862s-4.7554-2.7198-6.9862-1.0922c-2.2308 1.6276-2.7198 4.7554-1.0922 6.9862.30530.41846.67376.78693 1.0922 1.0922l-.8738 1.2c-2.8917-2.1169-3.5198-6.1772-1.4029-9.069s6.1772-3.5198 9.069-1.4029c1.674 1.22 2.661 3.18 2.656 5.25-.0031862 2.0713-.99713 4.0161-2.674 5.232l-.880-1.21zm0-16c2.2308-1.6276 2.7198-4.7554 1.0922-6.9862s-4.7554-2.7198-6.9862-1.0922c-2.2308 1.6276-2.7198 4.7554-1.0922 6.9862.30530.41843.67376.78690 1.0922 1.0922l-.8738 1.2c-2.8917-2.1169-3.5198-6.1772-1.4029-9.069 2.1169-2.8917 6.1772-3.5198 9.069-1.4029 1.674 1.22 2.661 3.18 2.656 5.25-.0031862 2.0713-.99713 4.0161-2.674 5.232l-.880-1.21zm0-16c2.2308-1.6276 2.7198-4.7554 1.0922-6.9862s-4.7554-2.7198-6.9862-1.0922c-2.2308 1.6276-2.7198 4.7554-1.0922 6.9862.30530.41843.67376.78690 1.0922 1.0922l-.8738 1.2c-2.8917-2.1169-3.5198-6.1772-1.4029-9.069 2.1169-2.8917 6.1772-3.5198 9.069-1.4029 1.674 1.22 2.661 3.18 2.656 5.25-.0031862 2.0713-.99713 4.0161-2.674 5.232l-.880-1.21zm0-16c2.2308-1.6276 2.7198-4.7554 1.0922-6.9862s-4.7554-2.7198-6.9862-1.0922c-2.2308 1.6276-2.7198 4.7554-1.0922 6.9862.30530.41843.67376.78690 1.0922 1.0922l-.8738 1.2c-2.8917-2.1169-3.5198-6.1772-1.4029-9.069 2.1169-2.8917 6.1772-3.5198 9.069-1.4029 1.674 1.22 2.661 3.18 2.656 5.25-.0031862 2.0713-.99713 4.0161-2.674 5.232l-.880-1.21zm0-16c2.2308-1.6276 2.7198-4.7554 1.0922-6.9862s-4.7554-2.7198-6.9862-1.0922c-2.2308 1.6276-2.7198 4.7554-1.0922 6.9862.30530.41843.67376.78690 1.0922 1.0922l-.8738 1.2c-2.8917-2.1169-3.5198-6.1772-1.4029-9.069 2.1169-2.8917 6.1772-3.5198 9.069-1.4029 1.674 1.22 2.661 3.18 2.656 5.25-.0031862 2.0713-.99713 4.0161-2.674 5.232l-.880-1.21zm0-16c2.2308-1.6276 2.7198-4.7554 1.0922-6.9862s-4.7554-2.7198-6.9862-1.0922c-2.2308 1.6276-2.7198 4.7554-1.0922 6.9862.30530.41843.67376.78690 1.0922 1.0922l-.8738 1.2c-2.8917-2.1169-3.5198-6.1772-1.4029-9.069 2.1169-2.8917 6.1772-3.5198 9.069-1.4029 1.674 1.22 2.661 3.18 2.656 5.25-.0031862 2.0713-.99713 4.0161-2.674 5.232l-.880-1.21zm0-16c2.2308-1.6276 2.7198-4.7554 1.0922-6.9862s-4.7554-2.7198-6.9862-1.0922c-2.2308 1.6276-2.7198 4.7554-1.0922 6.9862.30530.41843.67376.78690 1.0922 1.0922l-.8738 1.2c-2.8917-2.1169-3.5198-6.1772-1.4029-9.069 2.1169-2.8917 6.1772-3.5198 9.069-1.4029 1.674 1.22 2.661 3.18 2.656 5.25-.0031862 2.0713-.99713 4.0161-2.674 5.232l-.880-1.21zm0-16c2.2308-1.6276 2.7198-4.7554 1.0922-6.9862s-4.7554-2.7198-6.9862-1.0922c-2.2308 1.6276-2.7198 4.7554-1.0922 6.9862.30530.41843.67376.78690 1.0922 1.0922l-.8738 1.2c-2.8917-2.1169-3.5198-6.1772-1.4029-9.069 2.1169-2.8917 6.1772-3.5198 9.069-1.4029 1.674 1.22 2.661 3.18 2.656 5.25-.0031862 2.0713-.99713 4.0161-2.674 5.232l-.880-1.21zm0-16c2.2308-1.6276 2.7198-4.7554 1.0922-6.9862s-4.7554-2.7198-6.9862-1.0922c-2.2308 1.6276-2.7198 4.7554-1.0922 6.9862.30530.41843.67376.78690 1.0922 1.0922l-.8738 1.2c-2.8917-2.1169-3.5198-6.1772-1.4029-9.069 2.1169-2.8917 6.1772-3.5198 9.069-1.4029 1.674 1.22 2.661 3.18 2.656 5.25-.0031862 2.0713-.99713 4.0161-2.674 5.232l-.880-1.21zm0-16c2.2308-1.6276 2.7198-4.7554 1.0922-6.9862s-4.7554-2.7198-6.9862-1.0922c-2.2308 1.6276-2.7198 4.7554-1.0922 6.9862.30530.41843.67376.78690 1.0922 1.0922l-.8738 1.2c-2.8917-2.1169-3.5198-6.1772-1.4029-9.069 2.1169-2.8917 6.1772-3.5198 9.069-1.4029 1.674 1.22 2.661 3.18 2.656 5.25-.0031862 2.0713-.99713 4.0161-2.674 5.232l-.880-1.21zm0-16c2.2308-1.6276 2.7198-4.7554 1.0922-6.9862s-4.7554-2.7198-6.9862-1.0922c-2.2308 1.6276-2.7198 4.7554-1.0922 6.9862.30530.41843.67376.78690 1.0922 1.0922l-.8738 1.2c-2.8917-2.1169-3.5198-6.1772-1.4029-9.069 2.1169-2.8917 6.1772-3.5198 9.069-1.4029 1.674 1.22 2.661 3.18 2.656 5.25-.0031862 2.0713-.99713 4.0161-2.674 5.232l-.880-1.21zm0-16c2.2308-1.6276 2.7198-4.7554 1.0922-6.9862s-4.7554-2.7198-6.9862-1.0922c-2.2308 1.6276-2.7198 4.7554-1.0922 6.9862.30530.41843.67376.78690 1.0922 1.0922l-.8738 1.2c-2.8917-2.1169-3.5198-6.1772-1.4029-9.069 2.1169-2.8917 6.1772-3.5198 9.069-1.4029 1.674 1.22 2.661 3.18 2.656 5.25-.0031862 2.0713-.99713 4.0161-2.674 5.232l-.880-1.21zm0-16c2.2308-1.6276 2.7198-4.7554 1.0922-6.9862s-4.7554-2.7198-6.9862-1.0922c-2.2308 1.6276-2.7198 4.7554-1.0922 6.9862.30530.41843.67376.78690 1.0922 1.0922l-.8738 1.2c-2.8917-2.1169-3.5198-6.1772-1.4029-9.069 2.1169-2.8917 6.1772-3.5198 9.069-1.4029 1.674 1.22 2.661 3.18 2.656 5.25-.0031862 2.0713-.99713 4.0161-2.674 5.232l-.880-1.21zm0-16c2.2308-1.6276 2.7198-4.7554 1.0922-6.9862s-4.7554-2.7198-6.9862-1.0922c-2.2308 1.6276-2.7198 4.7554-1.0922 6.9862.30530.41843.67376.78690 1.0922 1.0922l-.8738 1.2c-2.8917-2.1169-3.5198-6.1772-1.4029-9.069 2.1169-2.8917 6.1772-3.5198 9.069-1.4029 1.674 1.22 2.661 3.18 2.656 5.25-.0031862 2.0713-.99713 4.0161-2.674 5.232l-.880-1.21zm0-16c2.2308-1.6276 2.7198-4.7554 1.0922-6.9862s-4.7554-2.7198-6.9862-1.0922c-2.2308 1.6276-2.7198 4.7554-1.0922 6.9862.30530.41843.67376.78690 1.0922 1.0922l-.8738 1.2c-2.8917-2.1169-3.5198-6.1772-1.4029-9.069 2.1169-2.8917 6.1772-3.5198 9.069-1.4029 1.674 1.22 2.661 3.18 2.656 5.25-.0031862 2.0713-.99713 4.0161-2.674 5.232l-.880-1.21zm0-16c2.2308-1.6276 2.7198-4.7554 1.0922-6.9862s-4.7554-2.7198-6.9862-1.0922c-2.2308 1.6276-2.7198 4.7554-1.0922 6.9862.30530.41843.67376.78690 1.0922 1.0922l-.8738 1.2c-2.8917-2.1169-3.5198-6.1772-1.4029-9.069 2.1169-2.8917 6.1772-3.5198 9.069-1.4029 1.674 1.22 2.661 3.18 2.656 5.25-.0031862 2.0713-.99713 4.0161-2.674 5.232l-.880-1.21zm0-16c2.2308-1.6276 2.7198-4.7554 1.0922-6.9862s-4.7554-2.7198-6.9862-1.0922c-2.2308 1.6276-2.7198 4.7554-1.0922 6.9862.30530.41843.67376.78690 1.0922 1.0922l-.8738 1.2c-2.8917-2.1169-3.5198-6.1772-1.4029-9.069 2.1169-2.8917 6.1772-3.5198 9.069-1.4029 1.674 1.22 2.661 3.18 2.656 5.25-.0031862 2.0713-.99713 4.0161-2.674 5.232l-.880-1.21zm0-16c2.2308-1.6276 2.7198-4.7554 1.0922-6.9862s-4.7554-2.7198-6.9862-1.0922-2.7198 4.7554-1.0922 6.9862c.30530.41844.67376.78691 1.0922 1.0922l-.8738 1.2c-2.8917-2.1169-3.5198-6.1772-1.4029-9.069 2.1169-2.8917 6.1772-3.5199 9.069-1.4029 1.674 1.22 2.661 3.18 2.656 5.25-.0031862 2.0713-.99713 4.0161-2.674 5.232l-.880-1.21zm0-16c2.2308-1.6276 2.7198-4.7554 1.0922-6.9862s-4.7554-2.7198-6.9862-1.0922-2.7198 4.7554-1.0922 6.9862c.30530.41844.67376.78691 1.0922 1.0922l-.8738 1.2c-2.8917-2.1169-3.5198-6.1772-1.4029-9.069 2.1169-2.8917 6.1772-3.5199 9.069-1.4029 1.674 1.22 2.661 3.18 2.656 5.25-.0031862 2.0713-.99713 4.0161-2.674 5.232l-.880-1.21zm0-16c2.2308-1.6276 2.7198-4.7554 1.0922-6.9862s-4.7554-2.7198-6.9862-1.0922-2.7198 4.7554-1.0922 6.9862c.30530.41844.67376.78691 1.0922 1.0922l-.8738 1.2c-2.8917-2.1169-3.5198-6.1772-1.4029-9.069 2.1169-2.8917 6.1772-3.5199 9.069-1.4029 1.674 1.22 2.661 3.18 2.656 5.25-.0031862 2.0713-.99713 4.0161-2.674 5.232l-.880-1.21zm0-16c2.2308-1.6276 2.7198-4.7554 1.0922-6.9862s-4.7554-2.7198-6.9862-1.0922-2.7198 4.7554-1.0922 6.9862c.30530.41844.67376.78691 1.0922 1.0922l-.8738 1.2c-2.8917-2.1169-3.5198-6.1772-1.4029-9.069 2.1169-2.8917 6.1772-3.5199 9.069-1.4029 1.674 1.22 2.661 3.18 2.656 5.25-.0031862 2.0713-.99713 4.0161-2.674 5.232l-.880-1.21zm0-16c2.2308-1.6276 2.7198-4.7554 1.0922-6.9862s-4.7554-2.7198-6.9862-1.0922-2.7198 4.7554-1.0922 6.9862c.30530.41844.67376.78691 1.0922 1.0922l-.8738 1.2c-2.8917-2.1169-3.5198-6.1772-1.4029-9.069 2.1169-2.8917 6.1772-3.5199 9.069-1.4029 1.674 1.22 2.661 3.18 2.656 5.25-.0031862 2.0713-.99713 4.0161-2.674 5.232l-.880-1.21zm0-16c2.2308-1.6276 2.7198-4.7554 1.0922-6.9862s-4.7554-2.7198-6.9862-1.0922-2.7198 4.7554-1.0922 6.9862c.30530.41844.67376.78691 1.0922 1.0922l-.8738 1.2c-2.8917-2.1169-3.5198-6.1772-1.4029-9.069 2.1169-2.8917 6.1772-3.5199 9.069-1.4029 1.674 1.22 2.661 3.18 2.656 5.25-.0031862 2.0713-.99713 4.0161-2.674 5.232l-.880-1.21zm0-16c2.2308-1.6276 2.7198-4.7554 1.0922-6.9862s-4.7554-2.7198-6.9862-1.0922-2.7198 4.7554-1.0922 6.9862c.30530.41844.67376.78691 1.0922 1.0922l-.8738 1.2c-2.8917-2.1169-3.5198-6.1772-1.4029-9.069 2.1169-2.8917 6.1772-3.5199 9.069-1.4029 1.674 1.22 2.661 3.18 2.656 5.25-.0031862 2.0713-.99713 4.0161-2.674 5.232l-.880-1.21zm0-16c2.2308-1.6276 2.7198-4.7554 1.0922-6.9862s-4.7554-2.7198-6.9862-1.0922-2.7198 4.7554-1.0922 6.9862c.30530.41844.67376.78691 1.0922 1.0922l-.8738 1.2c-2.8917-2.1169-3.5198-6.1772-1.4029-9.069 2.1169-2.8917 6.1772-3.5199 9.069-1.4029 1.674 1.22 2.661 3.18 2.656 5.25-.0031862 2.0713-.99713 4.0161-2.674 5.232l-.880-1.21zm0-16c2.2308-1.6276 2.7198-4.7554 1.0922-6.9862s-4.7554-2.7198-6.9862-1.0922c-2.2308 1.6276-2.7198 4.7554-1.0922 6.9862.30530.41845.67376.78691 1.0922 1.0922l-.8738 1.2c-2.8917-2.1169-3.5198-6.1772-1.4029-9.069s6.1772-3.5198 9.069-1.4029c1.674 1.22 2.661 3.18 2.656 5.25-.0031834 2.0713-.99713 4.0161-2.674 5.232l-.880-1.21zm0-16c2.2308-1.6276 2.7198-4.7554 1.0922-6.9862s-4.7552-2.716-6.986-1.088c-2.2308 1.6276-2.7198 4.7554-1.0922 6.9862.30530.41845.67376.78691 1.0922 1.0922l-.8740 1.2c-2.8917-2.1169-3.5198-6.1772-1.4029-9.069s6.1772-3.5198 9.069-1.4029c1.674 1.227 2.661 3.183 2.656 5.253-.0031834 2.0713-.99713 4.0161-2.674 5.232l-.880-1.21zm0-16c2.2308-1.6276 2.7198-4.7554 1.0922-6.9862s-4.7552-2.72-6.986-1.092c-2.2308 1.6276-2.7198 4.7554-1.0922 6.9862.30530.41845.67376.78691 1.0922 1.0922l-.8740 1.2c-2.8917-2.1169-3.5198-6.1772-1.4029-9.069s6.1772-3.5198 9.069-1.4029c1.674 1.226 2.661 3.177 2.656 5.252-.0030203 2.0714-0.997 4.0162-2.674 5.232l-.880-1.212zm0-16c2.2308-1.6276 2.7198-4.7554 1.0922-6.9862s-4.7552-2.72-6.986-1.092c-2.2308 1.6276-2.7198 4.7554-1.0922 6.9862.30530.41845.67376.78691 1.0922 1.0922l-.8740 1.2c-2.8917-2.1169-3.5198-6.1772-1.4029-9.069s6.1772-3.5198 9.069-1.4029c1.674 1.226 2.661 3.177 2.656 5.252-.0030203 2.0714-0.997 4.0162-2.674 5.232l-.880-1.212zm0-16c2.2308-1.6276 2.7198-4.7554 1.0922-6.9862s-4.7552-2.72-6.986-1.092c-2.2308 1.6276-2.7198 4.7554-1.0922 6.9862.30530.41844.67376.78691 1.0922 1.0922l-.8740 1.2c-2.8917-2.1169-3.5198-6.1772-1.4029-9.069 2.1169-2.8917 6.1772-3.5198 9.069-1.4029 1.674 1.226 2.661 3.177 2.656 5.252-.0030222 2.0714-0.997 4.0162-2.674 5.232l-.880-1.212zm0-16c2.2308-1.6276 2.7198-4.7554 1.0922-6.9862s-4.7552-2.72-6.986-1.092c-2.2308 1.6276-2.7198 4.7554-1.0922 6.9862.30530.41844.67376.78691 1.0922 1.0922l-.8740 1.2c-2.8917-2.1169-3.5198-6.1772-1.4029-9.069 2.1169-2.8917 6.1772-3.5198 9.069-1.4029 1.674 1.226 2.661 3.177 2.656 5.252-.0030222 2.0714-0.997 4.0162-2.674 5.232l-.880-1.212zm0-16c2.2308-1.6276 2.7198-4.7554 1.0922-6.9862s-4.7554-2.7198-6.9862-1.0922c-2.2308 1.6276-2.7198 4.7554-1.0922 6.9862.30530.41845.67376.78691 1.0922 1.0922l-.8738 1.2c-2.8917-2.1169-3.5198-6.1772-1.4029-9.069s6.1772-3.5198 9.069-1.4029c1.674 1.226 2.661 3.177 2.656 5.252-.0030212 2.0714-0.997 4.0162-2.674 5.232l-.880-1.212zm0-16c2.2308-1.6276 2.7198-4.7554 1.0922-6.9862s-4.7552-2.7198-6.986-1.0922-2.7198 4.7554-1.0922 6.9862c.30530.41845.67376.78691 1.0922 1.0922l-.8740 1.2c-2.8917-2.117-3.5198-6.1772-1.4029-9.0689s6.1772-3.5198 9.069-1.4029c1.674 1.2254 2.661 3.1773 2.656 5.2518-.0030212 2.0714-0.997 4.0162-2.674 5.232l-.880-1.212zm-2.946 1141.5c3.581-.0084229 6.4908 2.8877 6.4992 6.4688.0048971 2.0811-.98946 4.0381-2.6732 5.2612l-0.88-1.21c2.2308-1.6276 2.7198-4.7554 1.0922-6.9862s-4.7554-2.7198-6.9862-1.0922c-2.2308 1.6276-2.7198 4.7554-1.0922 6.9862.30530.41846.67376.78687 1.0922 1.0922l-.8738 1.1c-1.6801-1.2-2.6766-3.1-2.678-5.2 0-3.6 2.9101-6.5 6.5-6.5z" fill="#0D3C5B"/>
 <path d="m11.2 1147.8c1.138-.9 1.798-2.3 1.8-3.8.011385-2.7614-2.2179-5.0092-4.9793-5.0206-2.7614-.011352-5.0092 2.218-5.0206 4.9794-.0066178 1.6051.75777 3.1158 2.0549 4.0613l-.875 1.2c-1.6813-1.3-2.6788-3.2-2.68-5.3-.018999-3.5898 2.8757-6.5153 6.4655-6.5343s6.5153 2.8757 6.5343 6.4655c.010276 1.9417-.84795 3.7861-2.3398 5.0288l-.960-1.2zm1.309-15.1l-1.04-1.08c1.9887-1.9159 2.0477-5.0812.13182-7.0698s-5.0812-2.0477-7.0698-.13184c-.9812.9-1.5341 2.2-1.5312 3.6.0005693 1.5907.76787 3.0836 2.061 4.01l-0.88 1.21c-2.8908-2.1163-3.5185-6.1754-1.4022-9.0662 2.1164-2.8909 6.1754-3.5186 9.0662-1.4022 1.673 1.3 2.66 3.2 2.655 5.3.001 1.8-.718 3.5-1.991 4.7zm0.3-16.4l-1.11-1c.835-.9 1.299-2.1 1.301-3.3.018094-2.7614-2.2058-5.0145-4.9671-5.0327-2.7614-.018066-5.0146 2.2058-5.0327 4.9672-.010554 1.6107.75545 3.1278 2.0578 4.0756l-0.878 1.21c-2.8904-2.1169-3.5174-6.1761-1.4005-9.0665 2.1169-2.8903 6.1761-3.5173 9.0665-1.4004 1.672 1.2 2.658 3.1 2.654 5.2-.0042362 1.6029-.60571 3.1467-1.687 4.33h-.004zm.288-16.3l-1.177-.91003c1.703-2.1688 1.3254-5.3076-.84342-7.0106s-5.3076-1.3254-7.0106.84338c-.6939.9-1.0694 2-1.0664 3.1.0003383 1.5906.76725 3.0834 2.06 4.01l-0.878 1.21c-2.8912-2.1158-3.5197-6.1748-1.4039-9.0659 2.1158-2.8912 6.1748-3.5198 9.0659-1.4039 1.674 1.3 2.661 3.2 2.656 5.3-.0048151 1.4465-.49815 2.849-1.4 3.98h-.003zm.289-16.4l-1.243-.82996c1.5596-2.2849.97164-5.4014-1.3132-6.9611-2.2849-1.5596-5.4014-.97156-6.961 1.3132-1.5241 2.2329-1.0013 5.2725 1.1812 6.8678l-0.876 1.2c-2.889-2.1196-3.5127-6.1801-1.393-9.0691s6.18-3.5127 9.0691-1.3929c1.669 1.3 2.653 3.2 2.65 5.3.0036201 1.2943-.38361 2.5594-1.111 3.63h-.003zm-1.077-17.1c1.3862-2.3851.57647-5.4424-1.8086-6.8285-2.3851-1.3862-5.4423-.57654-6.8285 1.8086-1.2871 2.2145-.69050 5.0437 1.3812 6.5499l-0.877 1.2c-1.6815-1.2-2.6779-3.1-2.6757-5.2-.027330-3.5897 2.8606-6.522 6.4503-6.5493s6.522 2.8606 6.5493 6.4503c.0089321 1.1732-.29986 2.327-.89362 3.339l-1.297-.8zm.166-16.3c.341-.7.520-1.4.525-2.2 0-2.7615-2.2386-5-5-5s-5 2.2385-5 5c.0004039 1.5907.76774 3.0837 2.061 4.01l-0.879 1.21c-2.8912-2.1158-3.5197-6.1748-1.4039-9.0659 2.1158-2.8912 6.1748-3.5198 9.0659-1.4039 1.674 1.3 2.661 3.2 2.656 5.3-.0060444.98608-.23834 1.9578-0.679 2.84l-1.346-.6zm1.541-15.8l-1.389-.56006c1.0435-2.5566-.18321-5.4752-2.7399-6.5187s-5.4752.18323-6.5187 2.7399c-.86855 2.1282-.17436 4.5742 1.6826 5.9288l-0.872 1.2c-2.8889-2.118-3.5138-6.1769-1.3958-9.0658 2.118-2.8888 6.1769-3.5138 9.0658-1.3958 1.67 1.4 2.654 3.3 2.651 5.4-.0015755.83337-.16458 1.6587-0.48 2.4301h-.004zm.138-16.4l-1.42-.46002c.85806-2.6195-.56986-5.4386-3.1894-6.2967-2.6195-.85803-5.4386.56989-6.2967 3.1894-.1656.5-.2494 1.1-.2479 1.6.0000725 1.5908.76748 3.084 2.061 4.01l-.881 1.21c-1.6834-1.2-2.6814-3.1-2.68-5.2 0-3.5898 2.9101-6.5 6.5-6.5s6.5 2.9102 6.5 6.5c-.009.7-.125 1.4-.346 2zm-1.317-16.8c.67309-2.6747-.94955-5.3887-3.6243-6.0618-2.6747-.67303-5.3887.94958-6.0617 3.6243-.1010.41-.1517.83-.1510 1.24-.0028529 1.5924.76132 3.0887 2.053 4.02l-0.879 1.21c-2.9342-2.0968-3.613-6.1753-1.5162-9.1095s6.1753-3.613 9.1095-1.5162c2.2034 1.5745 3.2062 4.3457 2.5207 6.9657l-1.451-.3zm.076-16.33c.49088-2.7175-1.3141-5.3183-4.0316-5.8092-2.7174-.49084-5.3183 1.3141-5.8092 4.0316-.34102 1.8879.42818 3.8044 1.9797 4.9327l-0.88 1.209c-2.9377-2.0958-3.6202-6.1762-1.5244-9.1139 2.0958-2.9376 6.1762-3.6201 9.1139-1.5244 2.0755 1.4807 3.1002 4.0334 2.6245 6.5383l-1.473-.27zm.035-16.35c.027-.17.044-.35.052-.52.0096426-2.7614-2.2211-5.0078-4.9825-5.0175s-5.0078 2.2211-5.0174 4.9825c-.0055964 1.6027.75745 3.111 2.0519 4.0559l-0.88 1.209c-2.8926-2.1186-3.52-6.1809-1.4015-9.0735s6.1809-3.52 9.0735-1.4015c1.672 1.22 2.658 3.17 2.656 5.24-.010670.22638-.033368.45203-0.068.67603l-1.484-.16zm.035-16.35c0-.059021 0.018-.11499 0.018-.17401.0096426-2.7614-2.2211-5.0078-4.9825-5.0175s-5.0078 2.2211-5.0174 4.9825c-.0055964 1.6027.75745 3.111 2.0519 4.0559l-0.88 1.209c-2.893-2.118-3.5212-6.1802-1.4032-9.0732s6.1802-3.5212 9.0732-1.4033c1.672 1.22 2.66 3.17 2.657 5.24 0 .077026-0.02.14899-0.023.22601l-1.494-.06zm-4.983-21.17c-2.7553-.0061646-4.994 2.2225-5.0001 4.9778-.0035703 1.599.75952 3.1028 2.0521 4.0441l-0.88 1.209c-2.895-2.1106-3.5309-6.1684-1.4203-9.0634s6.1684-3.5309 9.0634-1.4203c1.614 1.1767 2.596 3.0314 2.6619 5.0277l-1.495.052002c-.089-2.69-2.292-4.83-4.982-4.83zm0-16c-2.7553-.0061646-4.994 2.2225-5.0001 4.9778-.0035703 1.599.75952 3.1028 2.0521 4.0441l-0.88 1.209c-2.8977-2.104-3.5412-6.1587-1.4372-9.0564 2.104-2.8978 6.1587-3.5413 9.0564-1.4373 1.4928 1.0839 2.4533 2.7524 2.6408 4.5876l-1.484.16c-.258-2.54-2.394-4.47-4.948-4.48zm0-16c-2.7553-.0061646-4.994 2.2225-5.0001 4.9778-.0035703 1.599.75952 3.1028 2.0521 4.0441l-0.88 1.209c-2.8954-2.111-3.5313-6.1694-1.4203-9.0648s6.1694-3.5313 9.0648-1.4203c1.3595.99115 2.2808 2.4716 2.5695 4.1291l-1.473.25897c-.417-2.39-2.489-4.14-4.913-4.14zm0-16c-2.7553-.0061646-4.994 2.2225-5.0001 4.9778-.0035703 1.599.75952 3.1028 2.0521 4.0441l-0.88 1.209c-2.8949-2.1097-3.5315-6.1667-1.4218-9.0617s6.1668-3.5316 9.0617-1.4218c1.2329.89844 2.1096 2.2027 2.4761 3.6835l-1.451 0.362c-.550-2.22-2.545-3.79-4.837-3.79zm0-16c-2.7498-.011780-4.9885 2.2079-5.0002 4.9577-.006855 1.6042.75973 3.1135 2.0592 4.0543l-.882 1.212c-2.8961-2.1025-3.5393-6.1547-1.4368-9.0508s6.1547-3.5393 9.0508-1.4368c1.1145.80908 1.9422 1.9522 2.363 3.2635l-1.42.46198c-.660-2.05-2.572-3.44-4.734-3.45zm0-16c-2.7542-.006958-4.9926 2.2202-4.9996 4.9744-.0040445 1.5999.75974 3.1046 2.0536 4.0457l-.8760 1.2c-2.8926-2.1119-3.5255-6.1689-1.4136-9.0616s6.169-3.5255 9.0616-1.4136c.98112.71637 1.7413 1.6938 2.194 2.8212l-1.389.56097c-.763-1.89-2.595-3.13-4.631-3.13zm0-16c-2.7614 0-5 2.2386-5 5 .00003 1.5916.76547 3.0859 2.057 4.016l-0.874 1.2c-1.6822-1.21-2.681-3.15-2.683-5.22-.0079226-3.5815 2.8891-6.4914 6.4706-6.4993 2.4914-.0054932 4.7658 1.4168 5.8514 3.6593l-1.343.65601c-.831-1.72-2.57-2.82-4.479-2.82zm0-16c-2.7498-.011169-4.988 2.2089-4.9992 4.9587-.0065296 1.6039.76002 3.1128 2.0592 4.0533l-.882 1.212c-2.8972-2.1-3.5434-6.1511-1.4433-9.0483s6.1511-3.5434 9.0483-1.4433c.74504.54004 1.3665 1.2326 1.823 2.0316l-1.293.74701c-.884-1.55-2.5294-2.51-4.313-2.51zm0-16c-2.7504-.010803-4.9887 2.2101-4.9995 4.9604-.0062878 1.6035.75991 3.1119 2.0585 4.0526l-.875 1.2c-1.6816-1.2-2.6806-3.14-2.684-5.21-.0011705-3.5898 2.908-6.501 6.4979-6.5021 2.1624-.0006714 4.1835 1.074 5.3921 2.8671l-1.243.83801c-.930-1.39-2.4844-2.21-4.147-2.21zm0-16c-2.7614 0-5 2.2386-5 5 .0003545 1.5908.76723 3.084 2.06 4.011l-.8830 1.22c-1.6815-1.21-2.6779-3.16-2.677-5.23-.012097-3.5771 2.8779-6.4868 6.4551-6.4988 2.0124-.0068359 3.9136.92212 5.1449 2.5139l-1.177.91901c-.939-1.21-2.3868-1.93-3.923-1.93zm0-16c-2.7542-.0075073-4.9931 2.2191-5.0006 4.9734-.0043676 1.6002.75946 3.1053 2.0536 4.0466l-0.88 1.21c-2.8992-2.1001-3.547-6.1528-1.4469-9.052s6.1528-3.5471 9.052-1.447c.37759.27356.72457.58698 1.0349.93494l-1.11 1c-.941-1.05-2.2877-1.66-3.703-1.66zm0-16c-2.7553-.0061646-4.994 2.2225-5.0001 4.9778-.0035703 1.599.75952 3.1028 2.0521 4.0441l-0.88 1.209c-2.8954-2.11-3.5321-6.1677-1.422-9.0631s6.1677-3.532 9.0631-1.4221c.24503.17859.47724.37408.69492.58514l-1.04 1.077c-.929-.91-2.1729-1.42-3.468-1.42zm0-16c-2.7553-.0061646-4.994 2.2225-5.0001 4.9778-.0035703 1.599.75952 3.1028 2.0521 4.0441l-0.88 1.209c-2.9049-2.0884-3.5668-6.1363-1.4784-9.0412s6.1363-3.5668 9.0412-1.4784c.14595.10492.28747.21588.42420.33258l-.96 1.144c-.892-.75-2.0256-1.18-3.199-1.18zm0-16c-2.7553-.0061646-4.994 2.2225-5.0001 4.9778-.0035703 1.599.75952 3.1028 2.0521 4.0441l-0.88 1.209c-2.8981-2.1016-3.5437-6.1547-1.4421-9.0528s6.1547-3.5437 9.0528-1.4421c.009119.0065918.018220.013245.027305.019898l-0.879 1.21c-.849-.63-1.8761-.97-2.931-.97zm0-16c-2.7553-.0061646-4.994 2.2225-5.0001 4.9778-.0035703 1.599.75952 3.1028 2.0521 4.0441l-0.88 1.209c-2.9122-2.0811-3.586-6.1289-1.5049-9.0411 2.0065-2.81 5.8615-3.55 8.7679-1.69l-0.793 1.268c-.7907-.50-1.7065-.77-2.642-.77zm0-16c-2.7509-.010376-4.9894 2.2112-4.9998 4.9622-.0060465 1.603.75980 3.111 2.0578 4.0518l-0.878 1.206c-2.9009-2.0826-3.5642-6.1226-1.4816-9.0235 1.9009-2.6478 5.4756-3.4667 8.3396-1.9105l-0.7 1.318c-.7175-.40-1.5208-.60-2.338-.61zm0-16c-2.7531-.0083008-4.9917 2.2169-5 4.97-.004817 1.6011.75967 3.107 2.055 4.048l-0.879 1.208c-2.899-2.0985-3.5479-6.1498-1.4494-9.0488 1.8035-2.4914 5.1098-3.3718 7.9134-2.1072l-0.609 1.368c-.6386-.29-1.3307-.44-2.031-.44zm0-16c-2.752-.0095825-4.9908 2.2136-5.0004 4.9656-.0055931 1.6022.75959 3.1094 2.0564 4.0504l-0.878 1.207c-2.9035-2.078-3.5728-6.1163-1.4948-9.0199 1.7031-2.3797 4.7924-3.3187 7.5318-2.2891l-0.511 1.4c-.5452-.21-1.122-.32-1.704-.32zm0-16c-2.7614 0-5 2.2386-5 5 .0017259 1.5905.76877 3.0828 2.061 4.01l-.8770 1.21c-1.6825-1.21-2.6816-3.15-2.684-5.22 0-3.5898 2.9101-6.5 6.5-6.5.60484.0084229 1.2055.10236 1.784.27899l-0.412 1.435c-.4450-.14-.9069-.21-1.372-.22zm0-16c-2.7531-.0083008-4.9917 2.2169-5 4.97-.004817 1.6011.75967 3.107 2.055 4.048l-0.879 1.208c-2.8979-2.0991-3.5454-6.15-1.4463-9.0479 1.2234-1.69 3.1849-2.69 5.2703-2.68.45411.0009155.90689.049194 1.351.14398l-0.312 1.467c-.3415-.07-.6897-.11-1.039-.11zm0-16c-2.7614 0-5 2.2386-5 5 .0018947 1.5901.76894 3.0822 2.061 4.009l-.8770 1.2c-1.6824-1.2-2.6816-3.14-2.684-5.21 0-3.5898 2.9101-6.5 6.5-6.5.30172.0091553.60244.039246 0.9.090027l-0.208 1.479c-.2288-.04-0.46-.06-.6920-.07zm0-16c-2.7548-.0065308-4.9933 2.2213-4.9999 4.9761-.0038073 1.5994.75963 3.1037 2.0529 4.0449l-0.879 1.208c-2.8979-2.1019-3.5431-6.1551-1.4411-9.0529 1.2235-1.69 3.1833-2.69 5.2671-2.68 0.155 0 0.3.034973 0.451.044983l-0.1 1.489c-.1210 0-.2320-.03-.3510-.03zm-5-11c.0025682 1.5914.76552 3.0857 2.053 4.021l-0.88 1.209c-2.8973-2.1046-3.5399-6.1594-1.4353-9.0568 1.2234-1.68 3.1808-2.68 5.2623-2.67v1.5c-2.7614 0-5 2.24-5 5zm0-16c.0025682 1.5914.76552 3.0857 2.053 4.021l-0.88 1.209c-2.8913-2.0931-3.5384-6.1337-1.4453-9.0251 1.1303-1.5614 2.8987-2.5368 4.8223-2.6599l0.1 1.489c-2.614.18-4.6454 2.35-4.65 4.97zm0-16c.0025682 1.5914.76552 3.0857 2.053 4.021l-0.88 1.209c-2.8911-2.0933-3.5379-6.134-1.4446-9.0252 1.0378-1.4333 2.6179-2.3784 4.3716-2.6147l0.208 1.479c-2.4653.34-4.3036 2.44-4.308 4.93zm0-16c.0025682 1.5914.76552 3.0857 2.053 4.021l-0.88 1.209c-2.8961-2.1024-3.5396-6.1546-1.4371-9.0507.94486-1.3016 2.34-2.2052 3.9141-2.5353l0.312 1.467c-2.3092.49-3.961 2.53-3.962 4.89zm0-16c.0025682 1.5914.76552 3.0857 2.053 4.021l-0.88 1.209c-2.8897-2.0906-3.5374-6.128-1.4468-9.0177.85528-1.1821 2.0857-2.0398 3.4908-2.4333l0.412 1.435c-2.1429.60-3.6241 2.55-3.629 4.78zm2.053-11.98l-0.88 1.209c-2.8903-2.0926-3.5371-6.132-1.4445-9.0223.76437-1.0558 1.8302-1.8557 3.0575-2.2946l0.511 1.4c-2.5855.92151-3.9345 3.7646-3.013 6.3501.33739.94662.95383 1.7687 1.768 2.3579h.0010zm0-16l-0.88 1.209c-2.8935-2.0976-3.5387-6.1437-1.4411-9.0372.67262-.92783 1.5796-1.6604 2.6281-2.1228l0.609 1.368c-2.5157 1.109-3.656 4.0474-2.547 6.5631.35514.80557.91758 1.5026 1.63 2.0199h.0010zm0-16l-0.88 1.209c-2.8872-2.0865-3.5364-6.1185-1.4499-9.0057.58616-.81113 1.353-1.4747 2.2399-1.9383l0.7 1.318c-2.4287 1.2694-3.3684 4.2674-2.099 6.696.35603.68115.86541 1.2703 1.488 1.7209h.0010zm0-16l-0.88 1.209c-2.8906-2.0903-3.5394-6.1281-1.4491-9.0187.49570-.68549 1.1212-1.2669 1.8411-1.7113l0.793 1.268c-2.3356 1.4409-3.0608 4.5024-1.6198 6.838.34120.55304.78757 1.0338 1.3138 1.415h.0010zm0-16l-0.88 1.209c-2.8892-2.0894-3.5376-6.1254-1.4482-9.0146.40671-.56241.90146-1.0555 1.4652-1.4604l0.879 1.21c-2.228 1.6004-2.7368 4.7039-1.1364 6.9319.31050.43228.68845.81183 1.1194 1.1241h.0010zm-3.553-116.02c.0057548-.98618.23807-1.9579 0.679-2.84l1.343 0.655c-1.0846 2.1638-.43553 4.795 1.531 6.206l-0.88 1.209c-1.6762-1.23-2.6697-3.17-2.673-5.24zm0-16c.0016228-.83438.16462-1.6606.48-2.433l1.389.56c-.86737 2.117-.17167 4.5526 1.683 5.892l-0.88 1.209c-1.6758-1.22-2.669-3.16-2.672-5.23zm0-16c.0087385-.68079.12553-1.3559.346-2l1.42 0.461c-.70620 2.0443 0.0214 4.3094 1.786 5.56l-0.88 1.209c-1.6758-1.22-2.669-3.16-2.672-5.23zm.0420-95.32l1.522-0.16c.14041 1.3947.86260 2.6656 1.989 3.5l-0.88 1.209c-1.48-1.077-2.4359-2.7292-2.632-4.549h.0010zm.0680-15.55l1.495-0.263c.21882 1.2638.91610 2.3948 1.947 3.158l-0.88 1.209c-1.3503-1-2.2679-2.47-2.562-4.11zm.084-15.56l1.455-.36301c.28738 1.1296.95918 2.1239 1.9 2.812l-0.88 1.209c-1.2254-.89-2.1006-2.19-2.475-3.66zm1.206-93.583l1.177-0.92c.28167.36048.61063.68137 0.978 0.954l-0.88 1.21c-.4791-.355-.9080-.774-1.275-1.244zm0.29-15.653l1.111-1c.22804.25399.48097.48447 0.755 0.688l-0.88 1.21c-.35902-.26532-.69037-.56617-0.989-0.898h.0030zm0.31-15.676l1.038-1.075c.16116.15715.33253.30346.513 0.438l-0.88 1.21c-.2361-.176-.4603-.367-.6710-.573zm.339-15.7l0.961-1.145c0.083 0.07.164 0.143 0.252 0.208l-0.88 1.209c-0.116-0.084-0.222-0.181-.332-0.273l-.0010.001zm1.213 63.063l-0.88 1.209c-.60372-.44183-1.1282-.98283-1.551-1.6l1.241-.837c.3246.473.7270.889 1.19 1.228zm0 15.999l-0.88 1.209c-.72482-.53429-1.3323-1.2116-1.785-1.99l1.295-0.748c.3479.60.8141 1.12 1.37 1.53zm0 16l-0.88 1.209c-.84830-.62392-1.5342-1.4426-2-2.387l1.345-0.656c.3578.73.8842 1.36 1.535 1.84zm0 16l-0.88 1.209c-.97338-.71416-1.7308-1.683-2.189-2.8l1.388-0.561c.3519.86.9335 1.6 1.681 2.15zm0 16l-0.88 1.209c-1.0983-.81-1.9172-1.94-2.342-3.23l1.423-.46201c.3266.99.9555 1.86 1.799 2.48zm0 64l-0.88 1.209c-1.6072-1.1699-2.5876-3.0134-2.659-5l1.507-.052002c.0525 1.52.8015 2.94 2.032 3.84zm-2.035 11.81c-.0020.05-.017.11-.017.17.0025682 1.5914.76552 3.0857 2.053 4.021l-0.88 1.209c-1.6762-1.22-2.6697-3.16-2.673-5.23 0-.078003.02-.14999.023-0.226l1.494.06zm.035 15.65c-.0266.17-.0439.35-.052.52.0025682 1.5914.76552 3.0857 2.053 4.021l-0.88 1.209c-1.6762-1.22-2.6697-3.16-2.673-5.23.010604-.22638.033303-.45204.068-.67599l1.484.16zm.0350 15.65c-.36070 1.8737.40775 3.7853 1.965 4.888l-0.88 1.209c-2.0271-1.4323-3.0281-3.9186-2.559-6.356l1.474.26zm1.085 22.1c-2.1595-1.5306-3.1404-4.242-2.46-6.8l1.451 0.362c-.52244 1.9658.23054 4.0493 1.889 5.227l-0.88 1.21zm-.4850 56.28c-1.3015 2.196-.70897 5.0226 1.365 6.511l-0.88 1.209c-2.6994-1.9337-3.4716-5.6108-1.778-8.467l1.293.75zm-1.076 14.85l1.243 0.836c-1.5039 2.2245-.97298 5.2407 1.2 6.818l-0.88 1.209c-2.8255-2.05-3.517-5.97-1.563-8.87zm.2890 15.66l1.177.91901c-1.7003 2.1337-1.349 5.2417.78469 6.942.062587.049866.12638.098206.19131.14499l-0.88 1.209c-2.8792-2.0702-3.535-6.0825-1.4648-8.9617.0618-.09.1258-.17.1918-.25zm.2880 15.65l1.11 1c-1.8454 2.017-1.7063 5.1481.31073 6.9935.14099.12897.28933.24969.44427.36154l-0.88 1.209c-2.8833-2.0778-3.5364-6.0995-1.4586-8.9828.14611-.20276.30391-.39682.47260-.58124h.0010zm0.3 15.66l1.04 1.077c-1.9824 1.8985-2.0504 5.0446-.15193 7.027.20597.21506.43085.41119.67193 0.586l-0.88 1.209c-2.8895-2.0928-3.5353-6.1318-1.4424-9.0212.22819-.31503.48438-.60886.76544-.87781l-.0030-.01zm.6810 25.9c-2.8836-2.0793-3.5356-6.1024-1.4564-8.986.32219-.44684.70041-.85046 1.1254-1.201l0.96 1.143c-2.1098 1.7402-2.4095 4.8613-.66928 6.9711.26896.32608.57857.61639.92128.86386l-.8810 1.22zm3.831 724.27c3.581-.0084229 6.4908 2.8877 6.4992 6.4688.0048971 2.0811-.98946 4.0381-2.6732 5.2612l-0.88-1.21c2.2308-1.6276 2.7198-4.7554 1.0922-6.9862s-4.7554-2.7198-6.9862-1.0922c-2.2308 1.6276-2.7198 4.7554-1.0922 6.9862.30530.41846.67376.78687 1.0922 1.0922l-.8738 1.1c-1.6801-1.2-2.6766-3.1-2.678-5.2 0-3.6 2.9101-6.5 6.5-6.5z" fill="#44B5FF"/>
 <path d="m4.5 1144c0-1.933 1.567-3.5 3.5-3.5s3.5 1.567 3.5 3.5-1.567 3.5-3.5 3.5-3.5-1.6-3.5-3.5zm3.5-2.5c-1.3807 0-2.5 1.1193-2.5 2.5s1.1193 2.5 2.5 2.5c.0420-2.4 0-5 0-5zm-3.5-13.5c0-1.933 1.567-3.5 3.5-3.5s3.5 1.567 3.5 3.5-1.567 3.5-3.5 3.5-3.5-1.6-3.5-3.5zm3.5-2.5c-1.3807 0-2.5 1.1193-2.5 2.5s1.1193 2.5 2.5 2.5c.0420-2.4 0-5 0-5zm-3.5-13.5c0-1.933 1.567-3.5 3.5-3.5s3.5 1.567 3.5 3.5-1.567 3.5-3.5 3.5-3.5-1.6-3.5-3.5zm3.5-2.5c-1.3807 0-2.5 1.1193-2.5 2.5s1.1193 2.5 2.5 2.5c.0420-2.4 0-5 0-5zm-3.5-13.5c0-1.933 1.567-3.5 3.5-3.5s3.5 1.567 3.5 3.5-1.567 3.5-3.5 3.5-3.5-1.6-3.5-3.5zm3.5-2.5c-1.3807 0-2.5 1.1193-2.5 2.5s1.1193 2.5 2.5 2.5c.0420-2.4 0-5 0-5zm-3.5-13.5c0-1.933 1.567-3.5 3.5-3.5s3.5 1.567 3.5 3.5-1.567 3.5-3.5 3.5-3.5-1.6-3.5-3.5zm3.5-2.5c-1.3807 0-2.5 1.1193-2.5 2.5s1.1193 2.5 2.5 2.5c.0420-2.4 0-5 0-5zm-3.5-13.5c0-1.933 1.567-3.5 3.5-3.5s3.5 1.567 3.5 3.5-1.567 3.5-3.5 3.5-3.5-1.6-3.5-3.5zm3.5-2.5c-1.3807 0-2.5 1.1193-2.5 2.5s1.1193 2.5 2.5 2.5c.0420-2.4 0-5 0-5zm-3.5-13.5c0-1.933 1.567-3.5 3.5-3.5s3.5 1.567 3.5 3.5-1.567 3.5-3.5 3.5-3.5-1.6-3.5-3.5zm3.5-2.5c-1.3807 0-2.5 1.1193-2.5 2.5s1.1193 2.5 2.5 2.5c.0420-2.4 0-5 0-5zm-3.5-13.5c0-1.933 1.567-3.5 3.5-3.5s3.5 1.567 3.5 3.5-1.567 3.5-3.5 3.5-3.5-1.6-3.5-3.5zm3.5-2.5c-1.3807 0-2.5 1.1193-2.5 2.5s1.1193 2.5 2.5 2.5c.0420-2.4 0-5 0-5zm-3.5-13.5c0-1.933 1.567-3.5 3.5-3.5s3.5 1.567 3.5 3.5-1.567 3.5-3.5 3.5-3.5-1.6-3.5-3.5zm3.5-2.5c-1.3807 0-2.5 1.1193-2.5 2.5s1.1193 2.5 2.5 2.5c.0420-2.4 0-5 0-5zm-3.5-13.5c0-1.933 1.567-3.5 3.5-3.5s3.5 1.567 3.5 3.5-1.567 3.5-3.5 3.5c-1.933 0-3.5-1.6-3.5-3.5zm3.5-2.5c-1.3807 0-2.5 1.1193-2.5 2.5s1.1193 2.5 2.5 2.5c.0420-2.4 0-5 0-5zm-3.5-13.5c0-1.933 1.567-3.5 3.5-3.5s3.5 1.567 3.5 3.5-1.567 3.5-3.5 3.5-3.5-1.57-3.5-3.5zm3.5-2.5c-1.3807 0-2.5 1.1193-2.5 2.5s1.1193 2.5 2.5 2.5c.0420-2.44 0-5 0-5zm-3.5-13.5c0-1.933 1.567-3.5 3.5-3.5s3.5 1.567 3.5 3.5-1.567 3.5-3.5 3.5-3.5-1.57-3.5-3.5zm3.5-2.5c-1.3807 0-2.5 1.1193-2.5 2.5s1.1193 2.5 2.5 2.5c.0420-2.44 0-5 0-5zm-3.5-13.5c0-1.933 1.567-3.5 3.5-3.5s3.5 1.567 3.5 3.5-1.567 3.5-3.5 3.5-3.5-1.57-3.5-3.5zm3.5-2.5c-1.3807 0-2.5 1.1193-2.5 2.5s1.1193 2.5 2.5 2.5c.0420-2.44 0-5 0-5zm-3.5-13.5c0-1.933 1.567-3.5 3.5-3.5s3.5 1.567 3.5 3.5-1.567 3.5-3.5 3.5-3.5-1.57-3.5-3.5zm3.5-2.5c-1.3807 0-2.5 1.1193-2.5 2.5s1.1193 2.5 2.5 2.5c.0420-2.44 0-5 0-5zm-3.5-13.5c0-1.933 1.567-3.5 3.5-3.5s3.5 1.567 3.5 3.5-1.567 3.5-3.5 3.5-3.5-1.57-3.5-3.5zm3.5-2.5c-1.3807 0-2.5 1.1193-2.5 2.5s1.1193 2.5 2.5 2.5c.0420-2.44 0-5 0-5zm-3.5-13.5c0-1.933 1.567-3.5 3.5-3.5s3.5 1.567 3.5 3.5-1.567 3.5-3.5 3.5-3.5-1.57-3.5-3.5zm3.5-2.5c-1.3807 0-2.5 1.1193-2.5 2.5s1.1193 2.5 2.5 2.5c.0420-2.44 0-5 0-5zm-3.5-13.5c0-1.933 1.567-3.5 3.5-3.5s3.5 1.567 3.5 3.5-1.567 3.5-3.5 3.5-3.5-1.57-3.5-3.5zm3.5-2.5c-1.3807 0-2.5 1.1193-2.5 2.5s1.1193 2.5 2.5 2.5c.0420-2.44 0-5 0-5zm-3.5-13.5c0-1.933 1.567-3.5 3.5-3.5s3.5 1.567 3.5 3.5-1.567 3.5-3.5 3.5-3.5-1.57-3.5-3.5zm3.5-2.5c-1.3807 0-2.5 1.1193-2.5 2.5s1.1193 2.5 2.5 2.5c.0420-2.44 0-5 0-5zm-3.5-13.5c0-1.933 1.567-3.5 3.5-3.5s3.5 1.567 3.5 3.5-1.567 3.5-3.5 3.5-3.5-1.57-3.5-3.5zm3.5-2.5c-1.3807 0-2.5 1.1193-2.5 2.5s1.1193 2.5 2.5 2.5c.0420-2.44 0-5 0-5zm-3.5-13.5c0-1.933 1.567-3.5 3.5-3.5s3.5 1.567 3.5 3.5-1.567 3.5-3.5 3.5-3.5-1.57-3.5-3.5zm3.5-2.5c-1.3807 0-2.5 1.1193-2.5 2.5s1.1193 2.5 2.5 2.5c.0420-2.44 0-5 0-5zm-3.5-13.5c0-1.933 1.567-3.5 3.5-3.5s3.5 1.567 3.5 3.5-1.567 3.5-3.5 3.5c-1.933 0-3.5-1.57-3.5-3.5zm3.5-2.5c-1.3807 0-2.5 1.1193-2.5 2.5s1.1193 2.5 2.5 2.5c.0420-2.44 0-5 0-5zm-3.5-13.5c0-1.933 1.567-3.5 3.5-3.5s3.5 1.567 3.5 3.5-1.567 3.5-3.5 3.5-3.5-1.57-3.5-3.5zm3.5-2.5c-1.3807 0-2.5 1.1193-2.5 2.5s1.1193 2.5 2.5 2.5c.0420-2.44 0-5 0-5zm-3.5-13.5c0-1.933 1.567-3.5 3.5-3.5s3.5 1.567 3.5 3.5-1.567 3.5-3.5 3.5-3.5-1.57-3.5-3.5zm3.5-2.5c-1.3807 0-2.5 1.1193-2.5 2.5s1.1193 2.5 2.5 2.5c.0420-2.44 0-5 0-5zm-3.5-13.5c0-1.933 1.567-3.5 3.5-3.5s3.5 1.567 3.5 3.5-1.567 3.5-3.5 3.5-3.5-1.57-3.5-3.5zm3.5-2.5c-1.3807 0-2.5 1.1193-2.5 2.5s1.1193 2.5 2.5 2.5c.0420-2.44 0-5 0-5zm-3.5-13.5c0-1.933 1.567-3.5 3.5-3.5s3.5 1.567 3.5 3.5-1.567 3.5-3.5 3.5-3.5-1.57-3.5-3.5zm3.5-2.5c-1.3807 0-2.5 1.1193-2.5 2.5s1.1193 2.5 2.5 2.5c.0420-2.44 0-5 0-5zm-3.5-13.5c0-1.933 1.567-3.5 3.5-3.5s3.5 1.567 3.5 3.5-1.567 3.5-3.5 3.5-3.5-1.57-3.5-3.5zm3.5-2.5c-1.3807 0-2.5 1.1193-2.5 2.5s1.1193 2.5 2.5 2.5c.0420-2.44 0-5 0-5zm-3.5-13.5c0-1.933 1.567-3.5 3.5-3.5s3.5 1.567 3.5 3.5-1.567 3.5-3.5 3.5-3.5-1.57-3.5-3.5zm3.5-2.5c-1.3807 0-2.5 1.1193-2.5 2.5s1.1193 2.5 2.5 2.5c.0420-2.44 0-5 0-5zm-3.5-13.5c0-1.933 1.567-3.5 3.5-3.5s3.5 1.567 3.5 3.5-1.567 3.5-3.5 3.5-3.5-1.57-3.5-3.5zm3.5-2.5c-1.3807 0-2.5 1.1193-2.5 2.5s1.1193 2.5 2.5 2.5c.0420-2.44 0-5 0-5zm-3.5-13.5c0-1.933 1.567-3.5 3.5-3.5s3.5 1.567 3.5 3.5-1.567 3.5-3.5 3.5-3.5-1.57-3.5-3.5zm3.5-2.5c-1.3807 0-2.5 1.1193-2.5 2.5s1.1193 2.5 2.5 2.5c.0420-2.44 0-5 0-5zm-3.5-13.5c0-1.933 1.567-3.5 3.5-3.5s3.5 1.567 3.5 3.5-1.567 3.5-3.5 3.5-3.5-1.57-3.5-3.5zm3.5-2.5c-1.3807 0-2.5 1.1193-2.5 2.5s1.1193 2.5 2.5 2.5c.0420-2.44 0-5 0-5zm-3.5-13.5c0-1.933 1.567-3.5 3.5-3.5s3.5 1.567 3.5 3.5-1.567 3.5-3.5 3.5-3.5-1.57-3.5-3.5zm3.5-2.5c-1.3807 0-2.5 1.1193-2.5 2.5s1.1193 2.5 2.5 2.5c.0420-2.44 0-5 0-5zm-3.5-13.5c0-1.933 1.567-3.5 3.5-3.5s3.5 1.567 3.5 3.5-1.567 3.5-3.5 3.5-3.5-1.57-3.5-3.5zm3.5-2.5c-1.3807 0-2.5 1.1193-2.5 2.5s1.1193 2.5 2.5 2.5c.0420-2.44 0-5 0-5zm-3.5-13.5c0-1.933 1.567-3.5 3.5-3.5s3.5 1.567 3.5 3.5-1.567 3.5-3.5 3.5-3.5-1.57-3.5-3.5zm3.5-2.5c-1.3807 0-2.5 1.1193-2.5 2.5s1.1193 2.5 2.5 2.5c.0420-2.44 0-5 0-5zm-3.5-13.5c0-1.933 1.567-3.5 3.5-3.5s3.5 1.567 3.5 3.5-1.567 3.5-3.5 3.5-3.5-1.57-3.5-3.5zm3.5-2.5c-1.3807 0-2.5 1.1193-2.5 2.5s1.1193 2.5 2.5 2.5c.0420-2.44 0-5 0-5zm-3.5-13.5c0-1.933 1.567-3.5 3.5-3.5s3.5 1.567 3.5 3.5-1.567 3.5-3.5 3.5-3.5-1.57-3.5-3.5zm3.5-2.5c-1.3807 0-2.5 1.1193-2.5 2.5s1.1193 2.5 2.5 2.5c.0420-2.44 0-5 0-5zm-3.5-13.5c0-1.933 1.567-3.5 3.5-3.5s3.5 1.567 3.5 3.5-1.567 3.5-3.5 3.5-3.5-1.57-3.5-3.5zm3.5-2.5c-1.3807 0-2.5 1.1193-2.5 2.5s1.1193 2.5 2.5 2.5c.0420-2.44 0-5 0-5zm-3.5-13.5c0-1.933 1.567-3.5 3.5-3.5s3.5 1.567 3.5 3.5-1.567 3.5-3.5 3.5-3.5-1.57-3.5-3.5zm3.5-2.5c-1.3807 0-2.5 1.1193-2.5 2.5s1.1193 2.5 2.5 2.5c.0420-2.44 0-5 0-5zm-3.5-13.5c0-1.933 1.567-3.5 3.5-3.5s3.5 1.567 3.5 3.5-1.567 3.5-3.5 3.5-3.5-1.57-3.5-3.5zm3.5-2.5c-1.3807 0-2.5 1.1193-2.5 2.5s1.1193 2.5 2.5 2.5c.0420-2.44 0-5 0-5zm-3.5-13.5c0-1.933 1.567-3.5 3.5-3.5s3.5 1.567 3.5 3.5-1.567 3.5-3.5 3.5-3.5-1.57-3.5-3.5zm3.5-2.5c-1.3807 0-2.5 1.1193-2.5 2.5s1.1193 2.5 2.5 2.5c.0420-2.44 0-5 0-5zm-3.5-13.5c0-1.933 1.567-3.5 3.5-3.5s3.5 1.567 3.5 3.5-1.567 3.5-3.5 3.5-3.5-1.57-3.5-3.5zm3.5-2.5c-1.3807 0-2.5 1.1193-2.5 2.5s1.1193 2.5 2.5 2.5c.0420-2.44 0-5 0-5zm-3.5-13.5c0-1.933 1.567-3.5 3.5-3.5s3.5 1.567 3.5 3.5-1.567 3.5-3.5 3.5-3.5-1.57-3.5-3.5zm3.5-2.5c-1.3807 0-2.5 1.1193-2.5 2.5s1.1193 2.5 2.5 2.5c.0420-2.44 0-5 0-5zm-3.5-13.5c0-1.933 1.567-3.5 3.5-3.5s3.5 1.567 3.5 3.5-1.567 3.5-3.5 3.5-3.5-1.57-3.5-3.5zm3.5-2.5c-1.3807 0-2.5 1.1193-2.5 2.5s1.1193 2.5 2.5 2.5c.0420-2.44 0-5 0-5zm-3.5-13.5c0-1.933 1.567-3.5 3.5-3.5s3.5 1.567 3.5 3.5-1.567 3.5-3.5 3.5-3.5-1.57-3.5-3.5zm3.5-2.5c-1.3807 0-2.5 1.1193-2.5 2.5s1.1193 2.5 2.5 2.5c.0420-2.44 0-5 0-5zm-3.5-13.5c0-1.933 1.567-3.5 3.5-3.5s3.5 1.567 3.5 3.5-1.567 3.5-3.5 3.5-3.5-1.57-3.5-3.5zm3.5-2.5c-1.3807 0-2.5 1.1193-2.5 2.5s1.1193 2.5 2.5 2.5c.0420-2.44 0-5 0-5zm-3.5-13.5c0-1.933 1.567-3.5 3.5-3.5s3.5 1.567 3.5 3.5-1.567 3.5-3.5 3.5-3.5-1.57-3.5-3.5zm3.5-2.5c-1.3807 0-2.5 1.1193-2.5 2.5s1.1193 2.5 2.5 2.5c.0420-2.44 0-5 0-5zm-3.5-13.5c0-1.933 1.567-3.5 3.5-3.5s3.5 1.567 3.5 3.5-1.567 3.5-3.5 3.5-3.5-1.57-3.5-3.5zm3.5-2.5c-1.3807 0-2.5 1.1193-2.5 2.5s1.1193 2.5 2.5 2.5c.0420-2.44 0-5 0-5zm-3.5-13.5c0-1.933 1.567-3.5 3.5-3.5s3.5 1.567 3.5 3.5-1.567 3.5-3.5 3.5-3.5-1.57-3.5-3.5zm3.5-2.5c-1.3807 0-2.5 1.1193-2.5 2.5s1.1193 2.5 2.5 2.5c.0420-2.44 0-5 0-5zm-3.5-13.5c0-1.933 1.567-3.5 3.5-3.5s3.5 1.567 3.5 3.5-1.567 3.5-3.5 3.5-3.5-1.57-3.5-3.5zm3.5-2.5c-1.3807 0-2.5 1.1193-2.5 2.5s1.1193 2.5 2.5 2.5c.0420-2.44 0-5 0-5zm-3.5-13.5c0-1.933 1.567-3.5 3.5-3.5s3.5 1.567 3.5 3.5-1.567 3.5-3.5 3.5c-1.933 0-3.5-1.57-3.5-3.5zm3.5-2.5c-1.3807 0-2.5 1.1193-2.5 2.5s1.1193 2.5 2.5 2.5c.0420-2.44 0-5 0-5zm-3.5-13.5c0-1.933 1.567-3.5 3.5-3.5s3.5 1.567 3.5 3.5-1.567 3.5-3.5 3.5c-1.933 0-3.5-1.57-3.5-3.5zm3.5-2.5c-1.3807 0-2.5 1.1193-2.5 2.5s1.1193 2.5 2.5 2.5c.0420-2.44 0-5 0-5zm-3.5-13.5c0-1.933 1.567-3.5 3.5-3.5s3.5 1.567 3.5 3.5-1.567 3.5-3.5 3.5-3.5-1.57-3.5-3.5zm3.5-2.5c-1.3807 0-2.5 1.1193-2.5 2.5s1.1193 2.5 2.5 2.5c.0420-2.44 0-5 0-5zm-3.5-13.5c0-1.933 1.567-3.5 3.5-3.5s3.5 1.567 3.5 3.5-1.567 3.5-3.5 3.5-3.5-1.57-3.5-3.5zm3.5-2.5c-1.3807 0-2.5 1.1193-2.5 2.5s1.1193 2.5 2.5 2.5c.0420-2.44 0-5 0-5zm-3.5-13.5c0-1.933 1.567-3.5 3.5-3.5s3.5 1.567 3.5 3.5-1.567 3.5-3.5 3.5-3.5-1.57-3.5-3.5zm3.5-2.5c-1.3807 0-2.5 1.1193-2.5 2.5s1.1193 2.5 2.5 2.5c.0420-2.44 0-5 0-5zm-3.5-13.5c0-1.933 1.567-3.5 3.5-3.5s3.5 1.567 3.5 3.5-1.567 3.5-3.5 3.5-3.5-1.57-3.5-3.5zm3.5-2.5c-1.3807 0-2.5 1.1193-2.5 2.5s1.1193 2.5 2.5 2.5c.0420-2.44 0-5 0-5zm-3.5-13.5c0-1.933 1.567-3.5 3.5-3.5s3.5 1.567 3.5 3.5-1.567 3.5-3.5 3.5-3.5-1.57-3.5-3.5zm3.5-2.5c-1.3807 0-2.5 1.1193-2.5 2.5s1.1193 2.5 2.5 2.5c.0420-2.44 0-5 0-5zm-3.5-13.5c0-1.933 1.567-3.5 3.5-3.5s3.5 1.567 3.5 3.5-1.567 3.5-3.5 3.5-3.5-1.57-3.5-3.5zm3.5-2.5c-1.3807 0-2.5 1.1193-2.5 2.5s1.1193 2.5 2.5 2.5c.0420-2.44 0-5 0-5zm-3.5-13.5c0-1.933 1.567-3.5 3.5-3.5s3.5 1.567 3.5 3.5-1.567 3.5-3.5 3.5-3.5-1.57-3.5-3.5zm3.5-2.5c-1.3807 0-2.5 1.1193-2.5 2.5s1.1193 2.5 2.5 2.5c.0420-2.44 0-5 0-5zm-3.5-13.5c0-1.933 1.567-3.5 3.5-3.5s3.5 1.567 3.5 3.5-1.567 3.5-3.5 3.5c-1.933 0-3.5-1.57-3.5-3.5zm3.5-2.5c-1.3807 0-2.5 1.1193-2.5 2.5s1.1193 2.5 2.5 2.5c.0420-2.44 0-5 0-5zm-3.5-13.5c0-1.933 1.567-3.5 3.5-3.5s3.5 1.567 3.5 3.5-1.567 3.5-3.5 3.5-3.5-1.57-3.5-3.5zm3.5-2.5c-1.3807 0-2.5 1.1193-2.5 2.5s1.1193 2.5 2.5 2.5c.0420-2.44 0-5 0-5zm-3.5-13.5c0-1.933 1.567-3.5 3.5-3.5s3.5 1.567 3.5 3.5-1.567 3.5-3.5 3.5-3.5-1.57-3.5-3.5zm3.5-2.5c-1.3807 0-2.5 1.1193-2.5 2.5s1.1193 2.5 2.5 2.5c.0420-2.44 0-5 0-5zm-3.5-13.5c0-1.933 1.567-3.5 3.5-3.5s3.5 1.567 3.5 3.5-1.567 3.5-3.5 3.5-3.5-1.57-3.5-3.5zm3.5-2.5c-1.3807 0-2.5 1.1193-2.5 2.5s1.1193 2.5 2.5 2.5c.0420-2.44 0-5 0-5zm-3.5-13.5c0-1.933 1.567-3.5 3.5-3.5s3.5 1.567 3.5 3.5-1.567 3.5-3.5 3.5-3.5-1.57-3.5-3.5zm3.5-2.5c-1.3807 0-2.5 1.1193-2.5 2.5s1.1193 2.5 2.5 2.5c.0420-2.44 0-5 0-5zm-3.5-13.5c0-1.933 1.567-3.5 3.5-3.5s3.5 1.567 3.5 3.5-1.567 3.5-3.5 3.5-3.5-1.57-3.5-3.5zm3.5-2.5c-1.3807 0-2.5 1.1193-2.5 2.5s1.1193 2.5 2.5 2.5c.0420-2.44 0-5 0-5zm-3.5-13.5c0-1.933 1.567-3.5 3.5-3.5s3.5 1.567 3.5 3.5-1.567 3.5-3.5 3.5-3.5-1.57-3.5-3.5zm3.5-2.5c-1.3807 0-2.5 1.1193-2.5 2.5s1.1193 2.5 2.5 2.5c.0420-2.44 0-5 0-5zm-3.5-13.5c0-1.933 1.567-3.5 3.5-3.5s3.5 1.567 3.5 3.5-1.567 3.5-3.5 3.5-3.5-1.57-3.5-3.5zm3.5-2.5c-1.3807 0-2.5 1.1193-2.5 2.5s1.1193 2.5 2.5 2.5c.0420-2.44 0-5 0-5zm-3.5-13.5c0-1.933 1.567-3.5 3.5-3.5s3.5 1.567 3.5 3.5-1.567 3.5-3.5 3.5-3.5-1.57-3.5-3.5zm3.5-2.5c-1.3807 0-2.5 1.1193-2.5 2.5s1.1193 2.5 2.5 2.5c.0420-2.44 0-5 0-5zm-3.5-13.5c0-1.933 1.567-3.5 3.5-3.5s3.5 1.567 3.5 3.5-1.567 3.5-3.5 3.5-3.5-1.567-3.5-3.5zm3.5-2.5c-1.3807 0-2.5 1.1193-2.5 2.5s1.1193 2.5 2.5 2.5c.0420-2.437 0-5 0-5zm-3.5-13.5c0-1.933 1.567-3.5 3.5-3.5s3.5 1.567 3.5 3.5-1.567 3.5-3.5 3.5-3.5-1.567-3.5-3.5zm3.5-2.5c-1.3807 0-2.5 1.1193-2.5 2.5s1.1193 2.5 2.5 2.5c.0420-2.437 0-5 0-5zm-3.5-13.5c0-1.933 1.567-3.5 3.5-3.5s3.5 1.567 3.5 3.5-1.567 3.5-3.5 3.5c-1.933 0-3.5-1.567-3.5-3.5zm3.5-2.5c-1.3807 0-2.5 1.1193-2.5 2.5s1.1193 2.5 2.5 2.5c.0420-2.437 0-5 0-5zm-3.5-13.5c0-1.933 1.567-3.5 3.5-3.5s3.5 1.567 3.5 3.5-1.567 3.5-3.5 3.5-3.5-1.567-3.5-3.5zm3.5-2.5c-1.3807 0-2.5 1.1193-2.5 2.5s1.1193 2.5 2.5 2.5c.0420-2.437 0-5 0-5zm-3.5-13.5c0-1.933 1.567-3.5 3.5-3.5s3.5 1.567 3.5 3.5-1.567 3.5-3.5 3.5-3.5-1.567-3.5-3.5zm3.5-2.5c-1.3807 0-2.5 1.1193-2.5 2.5s1.1193 2.5 2.5 2.5c.0420-2.437 0-5 0-5zm-3.5-13.5c0-1.933 1.567-3.5 3.5-3.5s3.5 1.567 3.5 3.5-1.567 3.5-3.5 3.5-3.5-1.567-3.5-3.5zm3.5-2.5c-1.3807 0-2.5 1.1193-2.5 2.5s1.1193 2.5 2.5 2.5c.0420-2.438 0-5 0-5zm3.5 1154.5c0 1.933-1.567 3.5-3.5 3.5s-3.5-1.567-3.5-3.5 1.567-3.5 3.5-3.5 3.5 1.6 3.5 3.5zm-3.5 2.5c0.042-2.4399 0-5 0-5-1.3807 0-2.5 1.1193-2.5 2.5s1.1193 2.5 2.5 2.5z" fill="#44B5FF"/>
</svg>
